SplineFontDB: 3.2
FontName: Pixel-7x7-monospace
FullName: Pixel 7x7 Monospace
FamilyName: Pixel-7x7
Weight: Regular
Copyright: Copyright (c) 2024, CTCL
UComments: "2024-5-23: Created with FontForge (http://fontforge.org)"
Version: 001.000
ItalicAngle: 0
UnderlinePosition: 0.895833
UnderlineWidth: 0.895833
Ascent: 7
Descent: 2
InvalidEm: 0
LayerCount: 2
Layer: 0 0 "Back" 1
Layer: 1 0 "Fore" 0
XUID: [1021 591 -1735377019 8750905]
StyleMap: 0x0000
FSType: 0
OS2Version: 0
OS2_WeightWidthSlopeOnly: 0
OS2_UseTypoMetrics: 1
CreationTime: 1716471852
ModificationTime: 1716822212
PfmFamily: 33
TTFWeight: 400
TTFWidth: 3
LineGap: 1
VLineGap: 1
OS2TypoAscent: 0
OS2TypoAOffset: 1
OS2TypoDescent: 0
OS2TypoDOffset: 1
OS2TypoLinegap: 1
OS2WinAscent: 0
OS2WinAOffset: 1
OS2WinDescent: 0
OS2WinDOffset: 1
HheadAscent: 0
HheadAOffset: 1
HheadDescent: 0
HheadDOffset: 1
OS2Vendor: 'PfEd'
MarkAttachClasses: 1
DEI: 91125
LangName: 1033
Encoding: ISO8859-1
UnicodeInterp: none
NameList: AGL For New Fonts
DisplaySize: -48
AntiAlias: 1
FitToEm: 0
WinInfo: 0 38 14
BeginPrivate: 0
EndPrivate
TeXData: 1 0 0 233016 116508 77672 582542 1048576 77672 783286 444596 497025 792723 393216 433062 380633 303038 157286 324010 404750 52429 2506097 1059062 262144
BeginChars: 256 193

StartChar: exclam
Encoding: 33 33 1
Width: 6
Flags: W
HStem: -13 20G<1 2> 0 1<1 2>
VStem: 1 1<0 1 2 7>
LayerCount: 2
Fore
SplineSet
1 7 m 5xa0
 2 7 l 5
 2 6 l 5
 2 5 l 5
 2 4 l 5
 2 3 l 5
 2 2 l 5
 1 2 l 5
 1 3 l 5
 1 4 l 5
 1 5 l 5
 1 6 l 5
 1 7 l 5xa0
1 1 m 5x60
 2 1 l 5
 2 0 l 5
 1 0 l 5
 1 1 l 5x60
EndSplineSet
EndChar

StartChar: quotedbl
Encoding: 34 34 2
Width: 6
Flags: W
HStem: 5 2<1 2 3 4>
VStem: 1 1<5 7> 3 1<5 7>
LayerCount: 2
Fore
SplineSet
1 7 m 5
 2 7 l 5
 2 6 l 5
 2 5 l 5
 1 5 l 5
 1 6 l 5
 1 7 l 5
3 7 m 5
 4 7 l 5
 4 6 l 5
 4 5 l 5
 3 5 l 5
 3 6 l 5
 3 7 l 5
EndSplineSet
EndChar

StartChar: numbersign
Encoding: 35 35 3
Width: 6
Flags: W
HStem: -13 20G<1 2 3 4> 0 21G<1 2 3 4> 2 1<0 1 2 3 4 5> 4 1<0 1 2 3 4 5>
VStem: 1 1<0 2 3 4 5 7> 3 1<0 2 3 4 5 7>
LayerCount: 2
Fore
SplineSet
1 7 m 1x8c
 2 7 l 1x8c
 2 6 l 1
 2 5 l 1
 3 5 l 1x1c
 3 6 l 1
 3 7 l 1
 4 7 l 1x8c
 4 6 l 1
 4 5 l 1
 5 5 l 1
 5 4 l 1
 4 4 l 1
 4 3 l 1
 5 3 l 1
 5 2 l 1
 4 2 l 1x3c
 4 1 l 1
 4 0 l 1
 3 0 l 1x4c
 3 1 l 1
 3 2 l 1
 2 2 l 1x2c
 2 1 l 1
 2 0 l 1
 1 0 l 1x4c
 1 1 l 1
 1 2 l 1
 0 2 l 1
 0 3 l 1
 1 3 l 1
 1 4 l 1
 0 4 l 1
 0 5 l 1
 1 5 l 1x3c
 1 6 l 1
 1 7 l 1x8c
2 4 m 1x3c
 2 3 l 1
 3 3 l 1
 3 4 l 1
 2 4 l 1x3c
EndSplineSet
EndChar

StartChar: dollar
Encoding: 36 36 4
Width: 6
Flags: W
HStem: -13 20G<2 3> 0 21G<2 3> 1 1<0 2 3 4> 3 1<1 2 3 4> 5 1<1 2 3 5>
VStem: 0 1<4 5> 2 1<0 1 2 3 4 5 6 7>
LayerCount: 2
Fore
SplineSet
2 7 m 1x86
 3 7 l 1x86
 3 6 l 1
 4 6 l 1
 5 6 l 1
 5 5 l 1
 4 5 l 1
 3 5 l 1
 3 4 l 1
 4 4 l 1
 4 3 l 1
 3 3 l 1
 3 2 l 1
 4 2 l 1
 4 1 l 1
 3 1 l 1x3e
 3 0 l 1
 2 0 l 1x46
 2 1 l 1
 1 1 l 1
 0 1 l 1
 0 2 l 1
 1 2 l 1
 2 2 l 1
 2 3 l 1
 1 3 l 1
 1 4 l 1
 2 4 l 1
 2 5 l 1
 1 5 l 1
 1 6 l 1
 2 6 l 1x3e
 2 7 l 1x86
4 3 m 1x36
 5 3 l 1
 5 2 l 1
 4 2 l 1
 4 3 l 1x36
1 4 m 1
 0 4 l 1
 0 5 l 1
 1 5 l 1x1e
 1 4 l 1
EndSplineSet
EndChar

StartChar: percent
Encoding: 37 37 5
Width: 6
Flags: W
HStem: -14 20G<3 4> -14 20G<3 4> 0 2<3 5> 0 1<0 1> 1 21G<1 2> 3 1<2 3> 4 21G<3 4> 5 2<0 2> 6 1<4 5>
VStem: 0 1<0 1> 1 1<1 3> 2 1<3 4> 3 1<4 6> 4 1<6 7>
LayerCount: 2
Fore
SplineSet
0 7 m 1x0140
 1 7 l 1x0120
 2 7 l 1x0110
 2 6 l 1x0090
 2 5 l 1x0110
 1 5 l 1x0120
 0 5 l 1x0140
 0 6 l 1x00c0
 0 7 l 1x0140
4 7 m 1x0084
 5 7 l 1
 5 6 l 1x0084
 4 6 l 1x8008
 4 7 l 1x0084
4 6 m 1x8008
 4 5 l 1x0108
 4 4 l 1x0208
 3 4 l 1x0410
 3 5 l 1x0508
 3 6 l 1
 4 6 l 1x8008
3 4 m 1x0410
 3 3 l 1x0410
 2 3 l 1x0420
 2 4 l 1
 3 4 l 1x0410
2 3 m 1x2420
 2 2 l 1x2420
 2 1 l 1x0820
 1 1 l 1x1040
 1 2 l 1
 1 3 l 1
 2 3 l 1x2420
1 1 m 1x1040
 1 0 l 1
 0 0 l 1
 0 1 l 1
 1 1 l 1x1040
3 2 m 1x2008
 4 2 l 1
 5 2 l 1x2004
 5 1 l 1x0804
 5 0 l 1
 4 0 l 1x2004
 3 0 l 1x2008
 3 1 l 1x0808
 3 2 l 1x2008
EndSplineSet
EndChar

StartChar: ampersand
Encoding: 38 38 6
Width: 6
Flags: W
HStem: -15 20G<2 3> 0 1<1 3 4 5> 1 2<0 1 3 4> 3 1<1 2> 5 1<1 2 3 4>
VStem: 0 1<1 3> 1 1<5 6> 2 1<4 5 6 7> 3 1<1 2 5 6>
LayerCount: 2
Fore
SplineSet
2 7 m 1x09
 3 7 l 1
 3 6 l 1x09
 2 6 l 1x0a
 2 7 l 1x09
3 6 m 1
 4 6 l 1
 4 5 l 1x0880
 3 5 l 1x81
 3 6 l 1
3 5 m 1x81
 3 4 l 1x11
 3 3 l 1x2080
 2 3 l 1x11
 1 3 l 1x25
 1 4 l 1x12
 2 4 l 1x11
 2 5 l 1x82
 3 5 l 1x81
3 3 m 1x2080
 4 3 l 1x2080
 5 3 l 1
 5 2 l 1
 4 2 l 1
 4 1 l 1
 3 1 l 1x5080
 3 2 l 1
 3 3 l 1x2080
4 1 m 1x4080
 5 1 l 1
 5 0 l 1
 4 0 l 1
 4 1 l 1x4080
3 1 m 1
 3 0 l 1x4080
 2 0 l 1x41
 1 0 l 1x42
 1 1 l 1
 2 1 l 1x45
 3 1 l 1
1 1 m 1x44
 0 1 l 1
 0 2 l 1
 0 3 l 1
 1 3 l 1x24
 1 2 l 1
 1 1 l 1x44
2 5 m 1x82
 1 5 l 1
 1 6 l 1
 2 6 l 1x0a
 2 5 l 1x82
EndSplineSet
EndChar

StartChar: quotesingle
Encoding: 39 39 7
Width: 6
Flags: W
HStem: 5 2<2 3>
VStem: 2 1<5 7>
LayerCount: 2
Fore
SplineSet
2 7 m 1
 3 7 l 1
 3 6 l 1
 3 5 l 1
 2 5 l 1
 2 6 l 1
 2 7 l 1
EndSplineSet
EndChar

StartChar: parenleft
Encoding: 40 40 8
Width: 6
Flags: W
HStem: -15 20G<1 2> 0 1<3 4> 1 1<2 3> 5 1<2 3> 6 1<3 4>
VStem: 1 1<2 5> 2 1<1 2 5 6> 3 1<0 1 6 7>
LayerCount: 2
Fore
SplineSet
3 7 m 1x09
 4 7 l 1
 4 6 l 1x09
 3 6 l 1x12
 3 7 l 1x09
3 6 m 1x12
 3 5 l 1x12
 2 5 l 1x84
 2 6 l 1
 3 6 l 1x12
2 5 m 1x84
 2 4 l 1
 2 3 l 1
 2 2 l 1
 1 2 l 1x24
 1 3 l 1
 1 4 l 1
 1 5 l 1
 2 5 l 1x84
2 2 m 1
 3 2 l 1x22
 3 1 l 1x42
 2 1 l 1x22
 2 2 l 1
3 1 m 1x42
 4 1 l 1
 4 0 l 1
 3 0 l 1x41
 3 1 l 1x42
EndSplineSet
EndChar

StartChar: parenright
Encoding: 41 41 9
Width: 6
Flags: W
HStem: -15 20G<3 4> 0 1<1 2> 1 1<2 3> 5 1<2 3> 6 1<1 2>
VStem: 1 1<0 1 6 7> 2 1<1 2 5 6>
LayerCount: 2
Fore
SplineSet
1 7 m 1x0c
 2 7 l 1x0c
 2 6 l 1x14
 1 6 l 1
 1 7 l 1x0c
2 6 m 1x14
 3 6 l 1x12
 3 5 l 1x82
 2 5 l 1x12
 2 6 l 1x14
3 5 m 1x82
 4 5 l 1x82
 4 4 l 1
 4 3 l 1
 4 2 l 1
 3 2 l 1x22
 3 3 l 1
 3 4 l 1
 3 5 l 1x82
3 2 m 1x22
 3 1 l 1x22
 2 1 l 1x44
 2 2 l 1
 3 2 l 1x22
2 1 m 1x44
 2 0 l 1
 1 0 l 1
 1 1 l 1
 2 1 l 1x44
EndSplineSet
EndChar

StartChar: asterisk
Encoding: 42 42 10
Width: 6
Flags: W
HStem: 4 1<1 2 3 4> 6 1<1 2 3 4>
VStem: 1 1<4 5 6 7> 3 1<4 5 6 7>
LayerCount: 2
Fore
SplineSet
1 7 m 5
 2 7 l 5
 2 6 l 5
 1 6 l 5
 1 7 l 5
2 6 m 5
 3 6 l 5
 3 5 l 5
 2 5 l 5
 2 6 l 5
3 6 m 5
 3 7 l 5
 4 7 l 5
 4 6 l 5
 3 6 l 5
3 5 m 5
 4 5 l 5
 4 4 l 5
 3 4 l 5
 3 5 l 5
2 5 m 5
 2 4 l 5
 1 4 l 5
 1 5 l 5
 2 5 l 5
EndSplineSet
EndChar

StartChar: plus
Encoding: 43 43 11
Width: 6
Flags: W
HStem: -14 20G<2 3> -14 20G<2 3> 1 21G<2 3> 3 1<0 2 3 5>
VStem: 2 1<1 3 4 6>
LayerCount: 2
Fore
SplineSet
2 6 m 1x88
 3 6 l 1x88
 3 5 l 1
 3 4 l 1
 4 4 l 1
 5 4 l 1
 5 3 l 1
 4 3 l 1
 3 3 l 1x18
 3 2 l 1
 3 1 l 1
 2 1 l 1x28
 2 2 l 1
 2 3 l 1
 1 3 l 1
 0 3 l 1
 0 4 l 1
 1 4 l 1
 2 4 l 1x18
 2 5 l 1
 2 6 l 1x88
EndSplineSet
EndChar

StartChar: comma
Encoding: 44 44 12
Width: 6
Flags: W
HStem: 0 2<2 3>
VStem: 2 1<0 2>
LayerCount: 2
Fore
SplineSet
2 2 m 1
 3 2 l 1
 3 1 l 1
 3 0 l 1
 2 0 l 1
 2 1 l 1
 2 2 l 1
EndSplineSet
EndChar

StartChar: hyphen
Encoding: 45 45 13
Width: 6
Flags: W
HStem: 3 1<0 5>
LayerCount: 2
Fore
SplineSet
0 4 m 1
 1 4 l 1
 2 4 l 1
 3 4 l 1
 4 4 l 1
 5 4 l 1
 5 3 l 1
 4 3 l 1
 3 3 l 1
 2 3 l 1
 1 3 l 1
 0 3 l 1
 0 4 l 1
EndSplineSet
EndChar

StartChar: period
Encoding: 46 46 14
Width: 6
Flags: W
HStem: 0 1<2 3>
VStem: 2 1<0 1>
LayerCount: 2
Fore
SplineSet
2 1 m 1
 3 1 l 1
 3 0 l 1
 2 0 l 1
 2 1 l 1
EndSplineSet
EndChar

StartChar: slash
Encoding: 47 47 15
Width: 6
Flags: W
HStem: -14 20G<3 4> -14 20G<3 4> 0 1<0 1> 1 21G<1 2> 3 1<2 3> 4 21G<3 4> 6 1<4 5>
VStem: 0 1<0 1> 1 1<1 3> 2 1<3 4> 3 1<4 6> 4 1<6 7>
LayerCount: 2
Fore
SplineSet
4 7 m 1x0210
 5 7 l 1
 5 6 l 1x0210
 4 6 l 1x8020
 4 7 l 1x0210
4 6 m 1x8020
 4 5 l 1
 4 4 l 1x0420
 3 4 l 1x0840
 3 5 l 1
 3 6 l 1
 4 6 l 1x8020
3 4 m 1x0840
 3 3 l 1x0840
 2 3 l 1x0880
 2 4 l 1
 3 4 l 1x0840
2 3 m 1x2880
 2 2 l 1
 2 1 l 1x1080
 1 1 l 1x21
 1 2 l 1
 1 3 l 1
 2 3 l 1x2880
1 1 m 1x21
 1 0 l 1
 0 0 l 1
 0 1 l 1
 1 1 l 1x21
EndSplineSet
EndChar

StartChar: zero
Encoding: 48 48 16
Width: 6
Flags: W
HStem: -14 20G<0 1 4 5> -14 20G<0 1 4 5> 0 1<1 4> 1 21G<0 1 4 5> 3 1<2 3> 6 1<1 4>
VStem: 0 1<1 2 3 6> 1 3<0 1 6 7> 4 1<1 4 5 6>
LayerCount: 2
Fore
SplineSet
1 7 m 1x05
 2 7 l 1
 3 7 l 1
 4 7 l 1x05
 4 6 l 1x81
 3 6 l 1
 2 6 l 1x05
 1 6 l 1x82
 1 7 l 1x05
4 6 m 1x81
 5 6 l 1x8080
 5 5 l 1
 5 4 l 1
 5 3 l 1x0880
 5 2 l 1
 5 1 l 1x1080
 4 1 l 1x21
 4 2 l 1
 4 3 l 1
 4 4 l 1
 3 4 l 1
 3 5 l 1
 4 5 l 1x2880
 4 6 l 1x81
4 1 m 1x21
 4 0 l 1
 3 0 l 1
 2 0 l 1
 1 0 l 1x21
 1 1 l 1x22
 2 1 l 1
 3 1 l 1
 4 1 l 1x21
1 1 m 1x2a
 0 1 l 1x12
 0 2 l 1
 0 3 l 1
 0 4 l 1x0a
 0 5 l 1
 0 6 l 1
 1 6 l 1x82
 1 5 l 1
 1 4 l 1
 1 3 l 1
 2 3 l 1
 2 2 l 1
 1 2 l 1
 1 1 l 1x2a
2 3 m 1x08
 2 4 l 1
 3 4 l 1
 3 3 l 1
 2 3 l 1x08
EndSplineSet
EndChar

StartChar: one
Encoding: 49 49 17
Width: 6
Flags: W
HStem: -13 20G<2 3> 0 1<0 2 3 5>
VStem: 2 1<1 5 6 7>
LayerCount: 2
Fore
SplineSet
2 7 m 1xa0
 3 7 l 1xa0
 3 6 l 1
 3 5 l 1
 3 4 l 1
 3 3 l 1
 3 2 l 1
 3 1 l 1
 4 1 l 1
 5 1 l 1
 5 0 l 1
 4 0 l 1
 3 0 l 1
 2 0 l 1
 1 0 l 1
 0 0 l 1
 0 1 l 1
 1 1 l 1
 2 1 l 1x60
 2 2 l 1
 2 3 l 1
 2 4 l 1
 2 5 l 1
 1 5 l 1
 1 6 l 1
 2 6 l 1
 2 7 l 1xa0
EndSplineSet
EndChar

StartChar: two
Encoding: 50 50 18
Width: 6
Flags: W
HStem: 0 1<1 5> 2 1<1 2> 3 1<2 3> 4 1<3 4> 5 1<0 1 4 5>
VStem: 0 1<1 2 5 6> 2 1<3 4> 3 1<4 5> 4 1<5 6>
LayerCount: 2
Fore
SplineSet
1 7 m 1x8e
 2 7 l 1x8e
 3 7 l 1x8d
 4 7 l 1
 4 6 l 1x8c80
 3 6 l 1x8d
 2 6 l 1
 1 6 l 1
 1 7 l 1x8e
4 6 m 1x8c80
 5 6 l 1
 5 5 l 1x8c80
 4 5 l 1x95
 4 6 l 1x8c80
4 5 m 1x95
 4 4 l 1x95
 3 4 l 1xa6
 3 5 l 1
 4 5 l 1x95
3 4 m 1xa6
 3 3 l 1xa6
 2 3 l 1xc6
 2 4 l 1
 3 4 l 1xa6
2 3 m 1xc6
 2 2 l 1
 1 2 l 1
 1 3 l 1
 2 3 l 1xc6
1 2 m 1
 1 1 l 1
 2 1 l 1xc6
 3 1 l 1xc5
 4 1 l 1
 5 1 l 1
 5 0 l 1
 4 0 l 1xc480
 3 0 l 1xc5
 2 0 l 1
 1 0 l 1
 0 0 l 1
 0 1 l 1
 0 2 l 1
 1 2 l 1
1 6 m 1x8c
 1 5 l 1
 0 5 l 1
 0 6 l 1
 1 6 l 1x8c
EndSplineSet
EndChar

StartChar: three
Encoding: 51 51 19
Width: 6
Flags: W
HStem: 0 1<1 4> 1 1<0 1> 3 1<2 4> 4 21G<4 5> 5 1<0 1> 6 1<1 4>
VStem: 0 1<1 2 5 6> 1 3<0 1 6 7> 4 1<1 3 4 6>
LayerCount: 2
Fore
SplineSet
1 7 m 1x05
 2 7 l 1
 3 7 l 1
 4 7 l 1
 4 6 l 1
 3 6 l 1
 2 6 l 1x05
 1 6 l 1x0a
 1 7 l 1x05
4 6 m 1
 5 6 l 1x0480
 5 5 l 1x0880
 5 4 l 1x1080
 4 4 l 1
 4 5 l 1x2880
 4 6 l 1
4 4 m 1x2080
 4 3 l 1
 3 3 l 1
 2 3 l 1
 2 4 l 1
 3 4 l 1
 4 4 l 1x2080
4 3 m 1
 5 3 l 1
 5 2 l 1
 5 1 l 1x6080
 4 1 l 1x81
 4 2 l 1x4080
 4 3 l 1
4 1 m 1x81
 4 0 l 1
 3 0 l 1
 2 0 l 1
 1 0 l 1x81
 1 1 l 1x82
 2 1 l 1
 3 1 l 1
 4 1 l 1x81
1 1 m 1x82
 0 1 l 1
 0 2 l 1
 1 2 l 1x42
 1 1 l 1x82
1 6 m 1x0a
 1 5 l 1
 0 5 l 1
 0 6 l 1
 1 6 l 1x0a
EndSplineSet
EndChar

StartChar: four
Encoding: 52 52 20
Width: 6
Flags: W
HStem: -16 20G<0 1> 0 21G<4 5> 2 1<1 4> 4 1<1 2> 5 1<2 3> 6 1<3 4>
VStem: 0 1<3 4> 1 1<4 5> 2 1<5 6> 4 1<0 2 3 6>
LayerCount: 2
Fore
SplineSet
3 7 m 1x06c0
 4 7 l 1
 5 7 l 1
 5 6 l 1x06c0
 5 5 l 1x0ac0
 5 4 l 1
 5 3 l 1
 5 2 l 1x32c0
 5 1 l 1
 5 0 l 1
 4 0 l 1x42c0
 4 1 l 1
 4 2 l 1
 3 2 l 1
 2 2 l 1x22c0
 1 2 l 1x2140
 0 2 l 1
 0 3 l 1x2240
 0 4 l 1
 1 4 l 1x8240
 1 3 l 1
 2 3 l 1
 3 3 l 1
 4 3 l 1
 4 4 l 1x32c0
 4 5 l 1x0ac0
 4 6 l 1x06c0
 3 6 l 1x0ac0
 3 7 l 1x06c0
1 4 m 1x8240
 1 5 l 1
 2 5 l 1
 2 4 l 1x1140
 1 4 l 1x8240
2 5 m 1
 2 6 l 1
 3 6 l 1
 3 5 l 1x08c0
 2 5 l 1
EndSplineSet
EndChar

StartChar: five
Encoding: 53 53 21
Width: 6
Flags: W
HStem: 0 1<0 4> 1 21G<4 5> 3 1<1 4> 6 1<1 5>
VStem: 0 1<4 6> 4 1<1 3>
LayerCount: 2
Fore
SplineSet
0 7 m 1x3c
 1 7 l 1
 2 7 l 1
 3 7 l 1
 4 7 l 1
 5 7 l 1
 5 6 l 1
 4 6 l 1
 3 6 l 1
 2 6 l 1
 1 6 l 1
 1 5 l 1
 1 4 l 1
 2 4 l 1
 3 4 l 1
 4 4 l 1
 4 3 l 1
 3 3 l 1
 2 3 l 1
 1 3 l 1
 0 3 l 1
 0 4 l 1
 0 5 l 1
 0 6 l 1
 0 7 l 1x3c
4 3 m 1
 5 3 l 1xac
 5 2 l 1
 5 1 l 1x4c
 4 1 l 1x8c
 4 2 l 1
 4 3 l 1
4 1 m 1
 4 0 l 1
 3 0 l 1
 2 0 l 1
 1 0 l 1
 0 0 l 1
 0 1 l 1
 1 1 l 1
 2 1 l 1
 3 1 l 1
 4 1 l 1
EndSplineSet
EndChar

StartChar: six
Encoding: 54 54 22
Width: 6
Flags: W
HStem: 0 1<1 4> 3 1<1 4> 6 1<1 5>
VStem: 0 1<1 3 4 6>
CounterMasks: 1 e0
LayerCount: 2
Fore
SplineSet
0 7 m 1
 1 7 l 1
 2 7 l 1
 3 7 l 1
 4 7 l 1
 5 7 l 1
 5 6 l 1
 4 6 l 1
 3 6 l 1
 2 6 l 1
 1 6 l 1
 1 5 l 1
 1 4 l 1
 2 4 l 1
 3 4 l 1
 4 4 l 1
 5 4 l 1
 5 3 l 1
 5 2 l 1
 5 1 l 1
 5 0 l 1
 4 0 l 1
 3 0 l 1
 2 0 l 1
 1 0 l 1
 0 0 l 1
 0 1 l 1
 0 2 l 1
 0 3 l 1
 0 4 l 1
 0 5 l 1
 0 6 l 1
 0 7 l 1
1 3 m 1
 1 2 l 1
 1 1 l 1
 2 1 l 1
 3 1 l 1
 4 1 l 1
 4 2 l 1
 4 3 l 1
 3 3 l 1
 2 3 l 1
 1 3 l 1
EndSplineSet
EndChar

StartChar: seven
Encoding: 55 55 23
Width: 6
Flags: W
HStem: -16 20G<2 3> 0 21G<2 3> 4 1<3 4> 5 21G<4 5> 6 1<0 4>
VStem: 2 1<0 4> 3 1<4 5> 4 1<5 6>
LayerCount: 2
Fore
SplineSet
0 7 m 1x2c
 1 7 l 1
 2 7 l 1x2c
 3 7 l 1x2a
 4 7 l 1
 5 7 l 1
 5 6 l 1x29
 5 5 l 1x11
 4 5 l 1x22
 4 6 l 1x29
 3 6 l 1x2a
 2 6 l 1
 1 6 l 1
 0 6 l 1
 0 7 l 1x2c
4 5 m 1x22
 4 4 l 1x22
 3 4 l 1x84
 3 5 l 1
 4 5 l 1x22
3 4 m 1x84
 3 3 l 1
 3 2 l 1
 3 1 l 1
 3 0 l 1
 2 0 l 1x44
 2 1 l 1
 2 2 l 1
 2 3 l 1
 2 4 l 1
 3 4 l 1x84
EndSplineSet
EndChar

StartChar: eight
Encoding: 56 56 24
Width: 6
Flags: W
HStem: 0 1<1 4> 1 2<0 1 4 5> 4 2<0 1 4 5>
VStem: 0 1<1 3 4 6> 1 3<0 1 3 4 6 7> 4 1<1 3 4 6>
LayerCount: 2
Fore
SplineSet
1 7 m 1x28
 2 7 l 1
 3 7 l 1
 4 7 l 1
 4 6 l 1x28
 3 6 l 1
 2 6 l 1
 1 6 l 1x30
 1 7 l 1x28
4 6 m 1
 5 6 l 1
 5 5 l 1
 5 4 l 1x24
 4 4 l 1x28
 4 5 l 1x24
 4 6 l 1
4 4 m 1x68
 4 3 l 1x68
 3 3 l 1
 2 3 l 1
 1 3 l 1
 1 4 l 1x70
 2 4 l 1
 3 4 l 1
 4 4 l 1x68
4 3 m 1
 5 3 l 1
 5 2 l 1
 5 1 l 1x64
 4 1 l 1xa8
 4 2 l 1xa4
 4 3 l 1
4 1 m 1xa8
 4 0 l 1
 3 0 l 1
 2 0 l 1
 1 0 l 1xa8
 1 1 l 1xb0
 2 1 l 1
 3 1 l 1
 4 1 l 1xa8
1 1 m 1xb0
 0 1 l 1
 0 2 l 1
 0 3 l 1
 1 3 l 1x70
 1 2 l 1
 1 1 l 1xb0
1 4 m 1
 0 4 l 1
 0 5 l 1
 0 6 l 1
 1 6 l 1
 1 5 l 1
 1 4 l 1
EndSplineSet
EndChar

StartChar: nine
Encoding: 57 57 25
Width: 6
Flags: W
HStem: 0 1<0 4> 3 1<1 4> 6 1<1 4>
VStem: 0 1<4 6> 4 1<1 3 4 6>
CounterMasks: 1 e0
LayerCount: 2
Fore
SplineSet
0 7 m 1
 1 7 l 1
 2 7 l 1
 3 7 l 1
 4 7 l 1
 5 7 l 1
 5 6 l 1
 5 5 l 1
 5 4 l 1
 5 3 l 1
 5 2 l 1
 5 1 l 1
 5 0 l 1
 4 0 l 1
 3 0 l 1
 2 0 l 1
 1 0 l 1
 0 0 l 1
 0 1 l 1
 1 1 l 1
 2 1 l 1
 3 1 l 1
 4 1 l 1
 4 2 l 1
 4 3 l 1
 3 3 l 1
 2 3 l 1
 1 3 l 1
 0 3 l 1
 0 4 l 1
 0 5 l 1
 0 6 l 1
 0 7 l 1
1 6 m 1
 1 5 l 1
 1 4 l 1
 2 4 l 1
 3 4 l 1
 4 4 l 1
 4 5 l 1
 4 6 l 1
 3 6 l 1
 2 6 l 1
 1 6 l 1
EndSplineSet
EndChar

StartChar: colon
Encoding: 58 58 26
Width: 6
Flags: W
HStem: 1 1<2 3> 5 1<2 3>
VStem: 2 1<1 2 5 6>
LayerCount: 2
Fore
SplineSet
2 6 m 1
 3 6 l 1
 3 5 l 1
 2 5 l 1
 2 6 l 1
2 2 m 1
 3 2 l 1
 3 1 l 1
 2 1 l 1
 2 2 l 1
EndSplineSet
EndChar

StartChar: semicolon
Encoding: 59 59 27
Width: 6
Flags: W
HStem: 0 21G<2 3> 5 1<2 3>
VStem: 2 1<0 2 5 6>
LayerCount: 2
Fore
SplineSet
2 6 m 1x60
 3 6 l 1
 3 5 l 1
 2 5 l 1
 2 6 l 1x60
2 2 m 1
 3 2 l 1
 3 1 l 1
 3 0 l 1
 2 0 l 1xa0
 2 1 l 1
 2 2 l 1
EndSplineSet
EndChar

StartChar: less
Encoding: 60 60 28
Width: 6
Flags: W
HStem: 0 1<3 4> 1 1<2 3> 2 1<1 2> 3 1<0 1> 4 1<1 2> 5 1<2 3> 6 1<3 4>
VStem: 0 1<3 4> 1 1<2 3 4 5> 2 1<1 2 5 6> 3 1<0 1 6 7>
LayerCount: 2
Fore
SplineSet
3 7 m 1x0220
 4 7 l 1
 4 6 l 1x0220
 3 6 l 1x0440
 3 7 l 1x0220
3 6 m 1x0440
 3 5 l 1x0440
 2 5 l 1x0880
 2 6 l 1
 3 6 l 1x0440
2 5 m 1x0880
 2 4 l 1x0880
 1 4 l 1x11
 1 5 l 1
 2 5 l 1x0880
1 4 m 1x11
 1 3 l 1x21
 0 3 l 1
 0 4 l 1
 1 4 l 1x11
1 3 m 1
 2 3 l 1x2080
 2 2 l 1x4080
 1 2 l 1x2080
 1 3 l 1
2 2 m 1x4080
 3 2 l 1x4040
 3 1 l 1x8040
 2 1 l 1x4040
 2 2 l 1x4080
3 1 m 1x8040
 4 1 l 1
 4 0 l 1
 3 0 l 1x8020
 3 1 l 1x8040
EndSplineSet
EndChar

StartChar: equal
Encoding: 61 61 29
Width: 6
Flags: W
HStem: 2 1<0 5> 4 1<0 5>
LayerCount: 2
Fore
SplineSet
0 5 m 1
 1 5 l 1
 2 5 l 1
 3 5 l 1
 4 5 l 1
 5 5 l 1
 5 4 l 1
 4 4 l 1
 3 4 l 1
 2 4 l 1
 1 4 l 1
 0 4 l 1
 0 5 l 1
0 3 m 1
 1 3 l 1
 2 3 l 1
 3 3 l 1
 4 3 l 1
 5 3 l 1
 5 2 l 1
 4 2 l 1
 3 2 l 1
 2 2 l 1
 1 2 l 1
 0 2 l 1
 0 3 l 1
EndSplineSet
EndChar

StartChar: greater
Encoding: 62 62 30
Width: 6
Flags: W
HStem: 0 1<0 1> 1 1<1 2> 2 1<2 3> 3 1<3 4> 4 1<2 3> 5 1<1 2> 6 1<0 1>
VStem: 0 1<0 1 6 7> 1 1<1 2 5 6> 2 1<2 3 4 5>
LayerCount: 2
Fore
SplineSet
0 7 m 1x03
 1 7 l 1x03
 1 6 l 1x05
 0 6 l 1
 0 7 l 1x03
1 6 m 1x05
 2 6 l 1x0480
 2 5 l 1x0880
 1 5 l 1x0480
 1 6 l 1x05
2 5 m 1x0880
 3 5 l 1x0840
 3 4 l 1x1040
 2 4 l 1x0840
 2 5 l 1x0880
3 4 m 1x1040
 4 4 l 1
 4 3 l 1x1040
 3 3 l 1x2040
 3 4 l 1x1040
3 3 m 1x2040
 3 2 l 1x2040
 2 2 l 1x4080
 2 3 l 1
 3 3 l 1x2040
2 2 m 1x4080
 2 1 l 1x4080
 1 1 l 1x81
 1 2 l 1
 2 2 l 1x4080
1 1 m 1x81
 1 0 l 1
 0 0 l 1
 0 1 l 1
 1 1 l 1x81
EndSplineSet
EndChar

StartChar: question
Encoding: 63 63 31
Width: 6
Flags: W
HStem: 0 1<2 3> 2 1<2 3> 3 1<3 4> 4 21G<4 5> 5 1<0 1> 6 1<1 4>
VStem: 0 1<5 6> 2 1<0 1 2 3> 4 1<4 6>
CounterMasks: 1 0380
LayerCount: 2
Fore
SplineSet
1 7 m 1x8780
 2 7 l 1
 3 7 l 1
 4 7 l 1
 4 6 l 1
 3 6 l 1
 2 6 l 1x8780
 1 6 l 1x8b80
 1 7 l 1x8780
4 6 m 1
 5 6 l 1x8780
 5 5 l 1x8b80
 5 4 l 1x9380
 4 4 l 1
 4 5 l 1xab80
 4 6 l 1
4 4 m 1xa380
 4 3 l 1xa380
 3 3 l 1xc380
 3 4 l 1
 4 4 l 1xa380
3 3 m 1xc380
 3 2 l 1
 2 2 l 1
 2 3 l 1
 3 3 l 1xc380
1 6 m 1x8b80
 1 5 l 1
 0 5 l 1
 0 6 l 1
 1 6 l 1x8b80
2 1 m 1
 3 1 l 1
 3 0 l 1
 2 0 l 1
 2 1 l 1
EndSplineSet
EndChar

StartChar: at
Encoding: 64 64 32
Width: 6
Flags: W
HStem: -15 20G<0 1 4 5> 0 1<1 4> 1 21G<0 1> 2 2<2 4> 5 1<1 4>
VStem: 0 1<1 5> 1 3<0 1 5 6> 4 1<4 5>
LayerCount: 2
Fore
SplineSet
1 6 m 1x0a
 2 6 l 1
 3 6 l 1
 4 6 l 1x0a
 4 5 l 1x82
 3 5 l 1
 2 5 l 1x0a
 1 5 l 1x84
 1 6 l 1x0a
4 5 m 1x82
 5 5 l 1x81
 5 4 l 1
 5 3 l 1
 5 2 l 1
 4 2 l 1
 3 2 l 1
 2 2 l 1
 2 3 l 1
 2 4 l 1
 3 4 l 1
 4 4 l 1x11
 4 5 l 1x82
1 5 m 1x84
 1 4 l 1
 1 3 l 1
 1 2 l 1
 1 1 l 1x54
 0 1 l 1x24
 0 2 l 1
 0 3 l 1
 0 4 l 1x14
 0 5 l 1
 1 5 l 1x84
1 1 m 1
 2 1 l 1
 3 1 l 1
 4 1 l 1
 4 0 l 1
 3 0 l 1
 2 0 l 1
 1 0 l 1x42
 1 1 l 1
EndSplineSet
EndChar

StartChar: A
Encoding: 65 65 33
Width: 6
Flags: W
HStem: -14 20G<0 1 4 5> -14 20G<0 1 4 5> 0 21G<0 1 4 5> 3 1<1 4> 6 1<1 4>
VStem: 0 1<0 3 4 6> 4 1<0 3 4 6>
LayerCount: 2
Fore
SplineSet
1 7 m 1x0e
 2 7 l 1
 3 7 l 1
 4 7 l 1x0e
 4 6 l 1x86
 3 6 l 1
 2 6 l 1x0e
 1 6 l 1x86
 1 7 l 1x0e
4 6 m 1x86
 5 6 l 1x86
 5 5 l 1
 5 4 l 1
 5 3 l 1x16
 5 2 l 1
 5 1 l 1
 5 0 l 1
 4 0 l 1x26
 4 1 l 1
 4 2 l 1
 4 3 l 1
 3 3 l 1
 2 3 l 1
 1 3 l 1x16
 1 2 l 1
 1 1 l 1
 1 0 l 1
 0 0 l 1x26
 0 1 l 1
 0 2 l 1
 0 3 l 1
 0 4 l 1x16
 0 5 l 1
 0 6 l 1
 1 6 l 1x86
 1 5 l 1
 1 4 l 1
 2 4 l 1
 3 4 l 1
 4 4 l 1x16
 4 5 l 1
 4 6 l 1x86
EndSplineSet
EndChar

StartChar: B
Encoding: 66 66 34
Width: 6
Flags: W
HStem: -14 20G<4 5> -14 20G<4 5> 0 1<1 4> 1 21G<4 5> 3 1<1 4> 4 21G<4 5> 6 1<1 4>
VStem: 0 4<0 1 3 4 6 7> 0 1<1 3 4 6> 4 1<1 3 4 6>
LayerCount: 2
Fore
SplineSet
0 7 m 1x03
 1 7 l 1x0280
 2 7 l 1
 3 7 l 1
 4 7 l 1x03
 4 6 l 1x81
 3 6 l 1
 2 6 l 1
 1 6 l 1
 1 5 l 1
 1 4 l 1x0a80
 2 4 l 1
 3 4 l 1
 4 4 l 1
 4 3 l 1x0b
 3 3 l 1
 2 3 l 1
 1 3 l 1
 1 2 l 1
 1 1 l 1x2a80
 2 1 l 1
 3 1 l 1
 4 1 l 1
 4 0 l 1x2b
 3 0 l 1
 2 0 l 1
 1 0 l 1x2a80
 0 0 l 1x2b
 0 1 l 1x11
 0 2 l 1x1080
 0 3 l 1x09
 0 4 l 1x05
 0 5 l 1x0480
 0 6 l 1
 0 7 l 1x03
4 6 m 1x81
 5 6 l 1x8040
 5 5 l 1
 5 4 l 1x0440
 4 4 l 1x09
 4 5 l 1x0840
 4 6 l 1x81
4 3 m 1x29
 5 3 l 1x2840
 5 2 l 1
 5 1 l 1x1040
 4 1 l 1x21
 4 2 l 1x2040
 4 3 l 1x29
EndSplineSet
EndChar

StartChar: C
Encoding: 67 67 35
Width: 6
Flags: W
HStem: 0 1<1 5> 6 1<1 5>
VStem: 0 1<1 6>
LayerCount: 2
Fore
SplineSet
0 7 m 1
 1 7 l 1
 2 7 l 1
 3 7 l 1
 4 7 l 1
 5 7 l 1
 5 6 l 1
 4 6 l 1
 3 6 l 1
 2 6 l 1
 1 6 l 1
 1 5 l 1
 1 4 l 1
 1 3 l 1
 1 2 l 1
 1 1 l 1
 2 1 l 1
 3 1 l 1
 4 1 l 1
 5 1 l 1
 5 0 l 1
 4 0 l 1
 3 0 l 1
 2 0 l 1
 1 0 l 1
 0 0 l 1
 0 1 l 1
 0 2 l 1
 0 3 l 1
 0 4 l 1
 0 5 l 1
 0 6 l 1
 0 7 l 1
EndSplineSet
EndChar

StartChar: D
Encoding: 68 68 36
Width: 6
Flags: W
HStem: -14 20G<4 5> -14 20G<4 5> 0 1<1 4> 1 21G<4 5> 6 1<1 4>
VStem: 0 1<1 6> 4 1<1 6>
LayerCount: 2
Fore
SplineSet
0 7 m 1x0e
 1 7 l 1
 2 7 l 1
 3 7 l 1
 4 7 l 1x0e
 4 6 l 1x86
 3 6 l 1
 2 6 l 1
 1 6 l 1
 1 5 l 1
 1 4 l 1
 1 3 l 1
 1 2 l 1
 1 1 l 1
 2 1 l 1
 3 1 l 1
 4 1 l 1
 4 0 l 1
 3 0 l 1
 2 0 l 1
 1 0 l 1
 0 0 l 1x2e
 0 1 l 1x16
 0 2 l 1
 0 3 l 1
 0 4 l 1
 0 5 l 1
 0 6 l 1
 0 7 l 1x0e
4 6 m 1x86
 5 6 l 1x86
 5 5 l 1
 5 4 l 1
 5 3 l 1
 5 2 l 1
 5 1 l 1x16
 4 1 l 1x26
 4 2 l 1
 4 3 l 1
 4 4 l 1
 4 5 l 1
 4 6 l 1x86
EndSplineSet
EndChar

StartChar: E
Encoding: 69 69 37
Width: 6
Flags: W
HStem: 0 1<1 5> 3 1<1 3> 6 1<1 5>
VStem: 0 1<1 3 4 6>
CounterMasks: 1 e0
LayerCount: 2
Fore
SplineSet
0 7 m 1
 1 7 l 1
 2 7 l 1
 3 7 l 1
 4 7 l 1
 5 7 l 1
 5 6 l 1
 4 6 l 1
 3 6 l 1
 2 6 l 1
 1 6 l 1
 1 5 l 1
 1 4 l 1
 2 4 l 1
 3 4 l 1
 3 3 l 1
 2 3 l 1
 1 3 l 1
 1 2 l 1
 1 1 l 1
 2 1 l 1
 3 1 l 1
 4 1 l 1
 5 1 l 1
 5 0 l 1
 4 0 l 1
 3 0 l 1
 2 0 l 1
 1 0 l 1
 0 0 l 1
 0 1 l 1
 0 2 l 1
 0 3 l 1
 0 4 l 1
 0 5 l 1
 0 6 l 1
 0 7 l 1
EndSplineSet
EndChar

StartChar: F
Encoding: 70 70 38
Width: 6
Flags: W
HStem: 0 21G<0 1> 3 1<1 3> 6 1<1 5>
VStem: 0 1<0 3 4 6>
LayerCount: 2
Fore
SplineSet
0 7 m 1x70
 1 7 l 1
 2 7 l 1
 3 7 l 1
 4 7 l 1
 5 7 l 1
 5 6 l 1
 4 6 l 1
 3 6 l 1
 2 6 l 1
 1 6 l 1
 1 5 l 1
 1 4 l 1
 2 4 l 1
 3 4 l 1
 3 3 l 1
 2 3 l 1
 1 3 l 1x70
 1 2 l 1
 1 1 l 1
 1 0 l 1
 0 0 l 1x90
 0 1 l 1
 0 2 l 1
 0 3 l 1
 0 4 l 1
 0 5 l 1
 0 6 l 1
 0 7 l 1x70
EndSplineSet
EndChar

StartChar: G
Encoding: 71 71 39
Width: 6
Flags: W
HStem: 0 1<1 4> 3 1<2 4> 6 1<1 5>
VStem: 0 1<1 6> 4 1<1 3>
CounterMasks: 1 e0
LayerCount: 2
Fore
SplineSet
0 7 m 1
 1 7 l 1
 2 7 l 1
 3 7 l 1
 4 7 l 1
 5 7 l 1
 5 6 l 1
 4 6 l 1
 3 6 l 1
 2 6 l 1
 1 6 l 1
 1 5 l 1
 1 4 l 1
 1 3 l 1
 1 2 l 1
 1 1 l 1
 2 1 l 1
 3 1 l 1
 4 1 l 1
 4 2 l 1
 4 3 l 1
 3 3 l 1
 2 3 l 1
 2 4 l 1
 3 4 l 1
 4 4 l 1
 5 4 l 1
 5 3 l 1
 5 2 l 1
 5 1 l 1
 5 0 l 1
 4 0 l 1
 3 0 l 1
 2 0 l 1
 1 0 l 1
 0 0 l 1
 0 1 l 1
 0 2 l 1
 0 3 l 1
 0 4 l 1
 0 5 l 1
 0 6 l 1
 0 7 l 1
EndSplineSet
EndChar

StartChar: H
Encoding: 72 72 40
Width: 6
Flags: W
HStem: -13 20G<0 1 4 5> 0 21G<0 1 4 5> 3 1<1 4>
VStem: 0 1<0 3 4 7> 4 1<0 3 4 7>
LayerCount: 2
Fore
SplineSet
0 7 m 1x98
 1 7 l 1x98
 1 6 l 1
 1 5 l 1
 1 4 l 1
 2 4 l 1
 3 4 l 1
 4 4 l 1x38
 4 5 l 1
 4 6 l 1
 4 7 l 1
 5 7 l 1x98
 5 6 l 1
 5 5 l 1
 5 4 l 1
 5 3 l 1x38
 5 2 l 1
 5 1 l 1
 5 0 l 1
 4 0 l 1x58
 4 1 l 1
 4 2 l 1
 4 3 l 1
 3 3 l 1
 2 3 l 1
 1 3 l 1x38
 1 2 l 1
 1 1 l 1
 1 0 l 1
 0 0 l 1x58
 0 1 l 1
 0 2 l 1
 0 3 l 1
 0 4 l 1x38
 0 5 l 1
 0 6 l 1
 0 7 l 1x98
EndSplineSet
EndChar

StartChar: I
Encoding: 73 73 41
Width: 6
Flags: W
HStem: 0 1<0 2 3 5> 6 1<0 2 3 5>
VStem: 2 1<1 6>
LayerCount: 2
Fore
SplineSet
0 7 m 1
 1 7 l 1
 2 7 l 1
 3 7 l 1
 4 7 l 1
 5 7 l 1
 5 6 l 1
 4 6 l 1
 3 6 l 1
 3 5 l 1
 3 4 l 1
 3 3 l 1
 3 2 l 1
 3 1 l 1
 4 1 l 1
 5 1 l 1
 5 0 l 1
 4 0 l 1
 3 0 l 1
 2 0 l 1
 1 0 l 1
 0 0 l 1
 0 1 l 1
 1 1 l 1
 2 1 l 1
 2 2 l 1
 2 3 l 1
 2 4 l 1
 2 5 l 1
 2 6 l 1
 1 6 l 1
 0 6 l 1
 0 7 l 1
EndSplineSet
EndChar

StartChar: J
Encoding: 74 74 42
Width: 6
Flags: W
HStem: -13 20G<4 5> 0 1<1 4> 1 1<0 1>
VStem: 0 1<1 2> 4 1<1 7>
LayerCount: 2
Fore
SplineSet
4 7 m 1x98
 5 7 l 1x98
 5 6 l 1
 5 5 l 1
 5 4 l 1
 5 3 l 1
 5 2 l 1
 5 1 l 1x38
 4 1 l 1x58
 4 2 l 1x38
 4 3 l 1
 4 4 l 1
 4 5 l 1
 4 6 l 1
 4 7 l 1x98
4 1 m 1x58
 4 0 l 1
 3 0 l 1
 2 0 l 1
 1 0 l 1
 1 1 l 1
 2 1 l 1
 3 1 l 1
 4 1 l 1x58
1 1 m 1
 0 1 l 1
 0 2 l 1
 1 2 l 1x38
 1 1 l 1
EndSplineSet
EndChar

StartChar: K
Encoding: 75 75 43
Width: 6
Flags: W
HStem: -13 20G<0 1 4 5> 0 21G<0 1 4 5> 2 1<3 4> 3 1<1 3> 4 1<3 4> 5 21G<4 5>
VStem: 0 1<0 3 4 7> 3 1<2 3 4 5> 4 1<0 2 5 7>
LayerCount: 2
Fore
SplineSet
0 7 m 1x83
 1 7 l 1x83
 1 6 l 1
 1 5 l 1
 1 4 l 1
 2 4 l 1
 3 4 l 1x17
 3 3 l 1x23
 2 3 l 1
 1 3 l 1x13
 1 2 l 1x23
 1 1 l 1
 1 0 l 1
 0 0 l 1x43
 0 1 l 1
 0 2 l 1x23
 0 3 l 1x13
 0 4 l 1x0b
 0 5 l 1x07
 0 6 l 1
 0 7 l 1x83
3 4 m 1x13
 3 5 l 1
 4 5 l 1
 4 4 l 1x0b
 3 4 l 1x13
4 5 m 1
 4 6 l 1
 4 7 l 1
 5 7 l 1x8280
 5 6 l 1
 5 5 l 1x0680
 4 5 l 1
3 3 m 1x23
 4 3 l 1
 4 2 l 1
 3 2 l 1
 3 3 l 1x23
4 2 m 1
 5 2 l 1x2280
 5 1 l 1
 5 0 l 1
 4 0 l 1
 4 1 l 1x4280
 4 2 l 1
EndSplineSet
EndChar

StartChar: L
Encoding: 76 76 44
Width: 6
Flags: W
HStem: -13 20G<0 1> 0 1<1 5>
VStem: 0 1<1 7>
LayerCount: 2
Fore
SplineSet
0 7 m 1xa0
 1 7 l 1xa0
 1 6 l 1
 1 5 l 1
 1 4 l 1
 1 3 l 1
 1 2 l 1
 1 1 l 1
 2 1 l 1
 3 1 l 1
 4 1 l 1
 5 1 l 1
 5 0 l 1
 4 0 l 1
 3 0 l 1
 2 0 l 1
 1 0 l 1
 0 0 l 1
 0 1 l 1x60
 0 2 l 1
 0 3 l 1
 0 4 l 1
 0 5 l 1
 0 6 l 1
 0 7 l 1xa0
EndSplineSet
EndChar

StartChar: M
Encoding: 77 77 45
Width: 6
Flags: W
HStem: -13 20G<0 1 4 5> 0 21G<0 1 4 5> 4 1<2 3> 5 1<1 2 3 4>
VStem: 0 1<0 5 6 7> 4 1<0 5 6 7>
LayerCount: 2
Fore
SplineSet
0 7 m 1x8c
 1 7 l 1x8c
 1 6 l 1
 2 6 l 1x1c
 2 5 l 1x2c
 1 5 l 1x1c
 1 4 l 1x2c
 1 3 l 1
 1 2 l 1
 1 1 l 1
 1 0 l 1
 0 0 l 1x4c
 0 1 l 1
 0 2 l 1
 0 3 l 1
 0 4 l 1x2c
 0 5 l 1
 0 6 l 1x1c
 0 7 l 1x8c
2 5 m 1x2c
 3 5 l 1
 3 4 l 1
 2 4 l 1
 2 5 l 1x2c
3 5 m 1
 3 6 l 1
 4 6 l 1x1c
 4 7 l 1
 5 7 l 1x8c
 5 6 l 1
 5 5 l 1x1c
 5 4 l 1x2c
 5 3 l 1
 5 2 l 1
 5 1 l 1
 5 0 l 1
 4 0 l 1x4c
 4 1 l 1
 4 2 l 1
 4 3 l 1
 4 4 l 1x2c
 4 5 l 1x1c
 3 5 l 1
EndSplineSet
EndChar

StartChar: N
Encoding: 78 78 46
Width: 6
Flags: W
HStem: -13 20G<0 1 4 5> 0 21G<0 1 4 5> 4 1<2 3>
VStem: 0 1<0 5 6 7> 4 1<0 3 4 7>
LayerCount: 2
Fore
SplineSet
0 7 m 1x98
 1 7 l 1x98
 1 6 l 1
 2 6 l 1
 2 5 l 1
 1 5 l 1
 1 4 l 1x38
 1 3 l 1
 1 2 l 1
 1 1 l 1
 1 0 l 1
 0 0 l 1x58
 0 1 l 1
 0 2 l 1
 0 3 l 1
 0 4 l 1
 0 5 l 1x38
 0 6 l 1
 0 7 l 1x98
2 5 m 1x38
 3 5 l 1
 3 4 l 1
 2 4 l 1
 2 5 l 1x38
3 4 m 1
 4 4 l 1
 4 5 l 1x38
 4 6 l 1
 4 7 l 1
 5 7 l 1x98
 5 6 l 1
 5 5 l 1
 5 4 l 1x38
 5 3 l 1
 5 2 l 1
 5 1 l 1
 5 0 l 1
 4 0 l 1x58
 4 1 l 1
 4 2 l 1
 4 3 l 1
 3 3 l 1
 3 4 l 1
EndSplineSet
EndChar

StartChar: O
Encoding: 79 79 47
Width: 6
Flags: W
HStem: -14 20G<0 1 4 5> -14 20G<0 1 4 5> 0 1<1 4> 1 21G<0 1 4 5> 6 1<1 4>
VStem: 0 1<1 6> 1 3<0 1 6 7>
LayerCount: 2
Fore
SplineSet
1 7 m 1x0a
 2 7 l 1
 3 7 l 1
 4 7 l 1x0a
 4 6 l 1x82
 3 6 l 1
 2 6 l 1x0a
 1 6 l 1x84
 1 7 l 1x0a
4 6 m 1x82
 5 6 l 1x82
 5 5 l 1
 5 4 l 1
 5 3 l 1
 5 2 l 1
 5 1 l 1x12
 4 1 l 1x22
 4 2 l 1
 4 3 l 1
 4 4 l 1
 4 5 l 1
 4 6 l 1x82
4 1 m 1x22
 4 0 l 1
 3 0 l 1
 2 0 l 1
 1 0 l 1x22
 1 1 l 1x24
 2 1 l 1
 3 1 l 1
 4 1 l 1x22
1 1 m 1x24
 0 1 l 1x14
 0 2 l 1
 0 3 l 1
 0 4 l 1
 0 5 l 1
 0 6 l 1
 1 6 l 1x84
 1 5 l 1
 1 4 l 1
 1 3 l 1
 1 2 l 1
 1 1 l 1x24
EndSplineSet
EndChar

StartChar: P
Encoding: 80 80 48
Width: 6
Flags: W
HStem: 0 21G<0 1> 3 1<1 4> 6 1<1 4>
VStem: 0 1<0 3 4 6>
LayerCount: 2
Fore
SplineSet
0 7 m 1x70
 1 7 l 1
 2 7 l 1
 3 7 l 1
 4 7 l 1
 5 7 l 1
 5 6 l 1
 5 5 l 1
 5 4 l 1
 5 3 l 1
 4 3 l 1
 3 3 l 1
 2 3 l 1
 1 3 l 1x70
 1 2 l 1
 1 1 l 1
 1 0 l 1
 0 0 l 1x90
 0 1 l 1
 0 2 l 1
 0 3 l 1
 0 4 l 1
 0 5 l 1
 0 6 l 1
 0 7 l 1x70
1 6 m 1
 1 5 l 1
 1 4 l 1
 2 4 l 1
 3 4 l 1
 4 4 l 1
 4 5 l 1
 4 6 l 1
 3 6 l 1
 2 6 l 1
 1 6 l 1
EndSplineSet
EndChar

StartChar: Q
Encoding: 81 81 49
Width: 6
Flags: W
HStem: 0 1<1 3 4 5> 2 1<2 3> 6 1<1 4>
VStem: 0 1<1 6> 2 1<2 3> 3 1<1 2> 4 1<0 1 2 6>
LayerCount: 2
Fore
SplineSet
0 7 m 1xf8
 1 7 l 1
 2 7 l 1xf8
 3 7 l 1xf4
 4 7 l 1
 5 7 l 1
 5 6 l 1
 5 5 l 1
 5 4 l 1
 5 3 l 1
 5 2 l 1xf2
 4 2 l 1xf4
 4 3 l 1
 4 4 l 1
 4 5 l 1
 4 6 l 1xf2
 3 6 l 1xf4
 2 6 l 1
 1 6 l 1
 1 5 l 1
 1 4 l 1
 1 3 l 1
 1 2 l 1
 1 1 l 1
 2 1 l 1xf8
 3 1 l 1
 3 0 l 1xf4
 2 0 l 1
 1 0 l 1
 0 0 l 1
 0 1 l 1
 0 2 l 1
 0 3 l 1
 0 4 l 1
 0 5 l 1
 0 6 l 1
 0 7 l 1xf8
4 2 m 1xf4
 4 1 l 1
 3 1 l 1xf4
 3 2 l 1xf8
 4 2 l 1xf4
4 1 m 1
 5 1 l 1
 5 0 l 1
 4 0 l 1xf2
 4 1 l 1
3 2 m 1xf8
 2 2 l 1
 2 3 l 1
 3 3 l 1
 3 2 l 1xf8
EndSplineSet
EndChar

StartChar: R
Encoding: 82 82 50
Width: 6
Flags: W
HStem: 0 1<3 5> 1 1<2 3> 3 1<2 4> 6 1<1 4>
VStem: 0 1<0 2 4 6> 4 1<4 6>
LayerCount: 2
Fore
SplineSet
0 7 m 1x7c
 1 7 l 1
 2 7 l 1
 3 7 l 1
 4 7 l 1
 5 7 l 1
 5 6 l 1
 5 5 l 1
 5 4 l 1
 5 3 l 1
 4 3 l 1
 3 3 l 1
 2 3 l 1
 2 2 l 1
 1 2 l 1
 1 1 l 1x7c
 1 0 l 1
 0 0 l 1xbc
 0 1 l 1
 0 2 l 1
 0 3 l 1
 0 4 l 1
 0 5 l 1
 0 6 l 1
 0 7 l 1x7c
2 2 m 1
 3 2 l 1x7c
 3 1 l 1xbc
 2 1 l 1
 2 2 l 1
3 1 m 1xbc
 4 1 l 1
 5 1 l 1
 5 0 l 1
 4 0 l 1
 3 0 l 1
 3 1 l 1xbc
1 6 m 1
 1 5 l 1
 1 4 l 1
 2 4 l 1
 3 4 l 1
 4 4 l 1
 4 5 l 1
 4 6 l 1
 3 6 l 1
 2 6 l 1
 1 6 l 1
EndSplineSet
EndChar

StartChar: S
Encoding: 83 83 51
Width: 6
Flags: W
HStem: 0 1<0 4> 3 1<1 4> 6 1<1 5>
VStem: 0 1<4 6> 4 1<1 3>
CounterMasks: 1 e0
LayerCount: 2
Fore
SplineSet
0 7 m 1
 1 7 l 1
 2 7 l 1
 3 7 l 1
 4 7 l 1
 5 7 l 1
 5 6 l 1
 4 6 l 1
 3 6 l 1
 2 6 l 1
 1 6 l 1
 1 5 l 1
 1 4 l 1
 2 4 l 1
 3 4 l 1
 4 4 l 1
 5 4 l 1
 5 3 l 1
 5 2 l 1
 5 1 l 1
 5 0 l 1
 4 0 l 1
 3 0 l 1
 2 0 l 1
 1 0 l 1
 0 0 l 1
 0 1 l 1
 1 1 l 1
 2 1 l 1
 3 1 l 1
 4 1 l 1
 4 2 l 1
 4 3 l 1
 3 3 l 1
 2 3 l 1
 1 3 l 1
 0 3 l 1
 0 4 l 1
 0 5 l 1
 0 6 l 1
 0 7 l 1
EndSplineSet
EndChar

StartChar: T
Encoding: 84 84 52
Width: 6
Flags: W
HStem: 0 21G<2 3> 6 1<0 2 3 5>
VStem: 2 1<0 6>
LayerCount: 2
Fore
SplineSet
0 7 m 1x60
 1 7 l 1
 2 7 l 1
 3 7 l 1
 4 7 l 1
 5 7 l 1
 5 6 l 1
 4 6 l 1
 3 6 l 1x60
 3 5 l 1
 3 4 l 1
 3 3 l 1
 3 2 l 1
 3 1 l 1
 3 0 l 1
 2 0 l 1xa0
 2 1 l 1
 2 2 l 1
 2 3 l 1
 2 4 l 1
 2 5 l 1
 2 6 l 1
 1 6 l 1
 0 6 l 1
 0 7 l 1x60
EndSplineSet
EndChar

StartChar: U
Encoding: 85 85 53
Width: 6
Flags: W
HStem: -13 20G<0 1 4 5> 0 1<1 4> 1 21G<0 1 4 5>
VStem: 0 1<1 7> 4 1<1 7>
LayerCount: 2
Fore
SplineSet
0 7 m 1x98
 1 7 l 1x98
 1 6 l 1
 1 5 l 1
 1 4 l 1
 1 3 l 1
 1 2 l 1
 1 1 l 1x58
 0 1 l 1x38
 0 2 l 1
 0 3 l 1
 0 4 l 1
 0 5 l 1
 0 6 l 1
 0 7 l 1x98
1 1 m 1x58
 2 1 l 1
 3 1 l 1
 4 1 l 1
 4 0 l 1
 3 0 l 1
 2 0 l 1
 1 0 l 1
 1 1 l 1x58
4 1 m 1
 4 2 l 1
 4 3 l 1
 4 4 l 1
 4 5 l 1
 4 6 l 1
 4 7 l 1
 5 7 l 1x98
 5 6 l 1
 5 5 l 1
 5 4 l 1
 5 3 l 1
 5 2 l 1
 5 1 l 1x38
 4 1 l 1
EndSplineSet
EndChar

StartChar: V
Encoding: 86 86 54
Width: 6
Flags: W
HStem: -13 20G<0 1 4 5> 0 1<2 3> 1 1<1 2 3 4>
VStem: 0 1<2 7> 1 1<1 2> 2 1<0 1> 3 1<1 2> 4 1<2 7>
LayerCount: 2
Fore
SplineSet
0 7 m 1x90
 1 7 l 1x90
 1 6 l 1
 1 5 l 1
 1 4 l 1
 1 3 l 1
 1 2 l 1
 0 2 l 1x30
 0 3 l 1
 0 4 l 1
 0 5 l 1
 0 6 l 1
 0 7 l 1x90
1 2 m 1x30
 2 2 l 1x28
 2 1 l 1x48
 1 1 l 1x28
 1 2 l 1x30
2 1 m 1x48
 3 1 l 1
 3 0 l 1
 2 0 l 1x44
 2 1 l 1x48
3 1 m 1
 3 2 l 1
 4 2 l 1
 4 1 l 1x22
 3 1 l 1
4 2 m 1
 4 3 l 1
 4 4 l 1
 4 5 l 1
 4 6 l 1
 4 7 l 1
 5 7 l 1x81
 5 6 l 1
 5 5 l 1
 5 4 l 1
 5 3 l 1
 5 2 l 1x21
 4 2 l 1
EndSplineSet
EndChar

StartChar: W
Encoding: 87 87 55
Width: 6
Flags: W
HStem: -13 20G<0 1 4 5> 0 21G<0 1 4 5> 1 1<1 2 3 4>
VStem: 0 1<0 1 2 7> 4 1<0 1 2 7>
LayerCount: 2
Fore
SplineSet
0 7 m 1x98
 1 7 l 1x98
 1 6 l 1
 1 5 l 1
 1 4 l 1
 1 3 l 1
 1 2 l 1
 2 2 l 1
 2 1 l 1
 1 1 l 1x38
 1 0 l 1
 0 0 l 1x58
 0 1 l 1
 0 2 l 1x38
 0 3 l 1
 0 4 l 1
 0 5 l 1
 0 6 l 1
 0 7 l 1x98
2 2 m 1x38
 2 3 l 1
 3 3 l 1
 3 2 l 1
 2 2 l 1x38
3 2 m 1
 4 2 l 1x38
 4 3 l 1
 4 4 l 1
 4 5 l 1
 4 6 l 1
 4 7 l 1
 5 7 l 1x98
 5 6 l 1
 5 5 l 1
 5 4 l 1
 5 3 l 1
 5 2 l 1
 5 1 l 1x38
 5 0 l 1
 4 0 l 1x58
 4 1 l 1
 3 1 l 1
 3 2 l 1
EndSplineSet
EndChar

StartChar: X
Encoding: 88 88 56
Width: 6
Flags: W
HStem: 0 2<0 1 4 5> 2 1<1 2 3 4> 4 1<1 2 3 4> 5 2<0 1 4 5>
VStem: 0 1<0 2 5 7> 1 1<2 3 4 5> 3 1<2 3 4 5> 4 1<0 2 5 7>
LayerCount: 2
Fore
SplineSet
0 7 m 1x18
 1 7 l 1x18
 1 6 l 1
 1 5 l 1x28
 0 5 l 1
 0 6 l 1
 0 7 l 1x18
1 5 m 1x28
 2 5 l 1
 2 4 l 1
 1 4 l 1x24
 1 5 l 1x28
2 4 m 1
 3 4 l 1
 3 3 l 1
 2 3 l 1x66
 2 4 l 1
3 4 m 1
 3 5 l 1
 4 5 l 1
 4 4 l 1
 3 4 l 1
4 5 m 1
 4 6 l 1
 4 7 l 1
 5 7 l 1
 5 6 l 1
 5 5 l 1x11
 4 5 l 1
3 3 m 1x42
 4 3 l 1x42
 4 2 l 1x82
 3 2 l 1
 3 3 l 1x42
4 2 m 1x82
 5 2 l 1
 5 1 l 1
 5 0 l 1
 4 0 l 1
 4 1 l 1x81
 4 2 l 1x82
2 3 m 1x44
 2 2 l 1x44
 1 2 l 1x88
 1 3 l 1
 2 3 l 1x44
1 2 m 1x88
 1 1 l 1
 1 0 l 1
 0 0 l 1
 0 1 l 1
 0 2 l 1
 1 2 l 1x88
EndSplineSet
EndChar

StartChar: Y
Encoding: 89 89 57
Width: 6
Flags: W
HStem: -16 20G<2 3> 0 21G<2 3> 4 1<1 2 3 4> 5 2<0 1 4 5>
VStem: 0 1<5 7> 1 1<4 5> 2 1<0 4> 3 1<4 5> 4 1<5 7>
LayerCount: 2
Fore
SplineSet
0 7 m 1x18
 1 7 l 1x18
 1 6 l 1
 1 5 l 1x28
 0 5 l 1
 0 6 l 1
 0 7 l 1x18
1 5 m 1x28
 2 5 l 1x24
 2 4 l 1x84
 1 4 l 1x24
 1 5 l 1x28
2 4 m 1x84
 3 4 l 1x82
 3 3 l 1
 3 2 l 1
 3 1 l 1
 3 0 l 1
 2 0 l 1
 2 1 l 1
 2 2 l 1
 2 3 l 1x42
 2 4 l 1x84
3 4 m 1
 3 5 l 1
 4 5 l 1
 4 4 l 1x21
 3 4 l 1
4 5 m 1
 4 6 l 1
 4 7 l 1
 5 7 l 1
 5 6 l 1
 5 5 l 1x1080
 4 5 l 1
EndSplineSet
EndChar

StartChar: Z
Encoding: 90 90 58
Width: 6
Flags: W
HStem: 0 1<1 5> 2 1<1 2> 3 1<2 3> 4 1<3 4> 5 21G<4 5> 6 1<0 4>
VStem: 0 1<1 2> 1 1<2 3> 2 1<3 4> 3 1<4 5> 4 1<5 6>
LayerCount: 2
Fore
SplineSet
0 7 m 1x96
 1 7 l 1x95
 2 7 l 1x9480
 3 7 l 1x9440
 4 7 l 1
 5 7 l 1
 5 6 l 1x9420
 5 5 l 1x8820
 4 5 l 1x9040
 4 6 l 1x9420
 3 6 l 1x9440
 2 6 l 1x9480
 1 6 l 1x95
 0 6 l 1
 0 7 l 1x96
4 5 m 1x9040
 4 4 l 1x9040
 3 4 l 1xa080
 3 5 l 1
 4 5 l 1x9040
3 4 m 1xa080
 3 3 l 1xa080
 2 3 l 1xc1
 2 4 l 1
 3 4 l 1xa080
2 3 m 1xc1
 2 2 l 1xc1
 1 2 l 1xc2
 1 3 l 1
 2 3 l 1xc1
1 2 m 1xc2
 1 1 l 1
 2 1 l 1xc280
 3 1 l 1xc040
 4 1 l 1
 5 1 l 1
 5 0 l 1
 4 0 l 1xc020
 3 0 l 1xc040
 2 0 l 1xc080
 1 0 l 1xc1
 0 0 l 1
 0 1 l 1
 0 2 l 1
 1 2 l 1xc2
EndSplineSet
EndChar

StartChar: bracketleft
Encoding: 91 91 59
Width: 6
Flags: W
HStem: 0 1<2 4> 6 1<2 4>
VStem: 1 3<0 1 6 7>
LayerCount: 2
Fore
SplineSet
1 7 m 1
 2 7 l 1
 3 7 l 1
 4 7 l 1
 4 6 l 1
 3 6 l 1
 2 6 l 1
 2 5 l 1
 2 4 l 1
 2 3 l 1
 2 2 l 1
 2 1 l 1
 3 1 l 1
 4 1 l 1
 4 0 l 1
 3 0 l 1
 2 0 l 1
 1 0 l 1
 1 1 l 1
 1 2 l 1
 1 3 l 1
 1 4 l 1
 1 5 l 1
 1 6 l 1
 1 7 l 1
EndSplineSet
EndChar

StartChar: backslash
Encoding: 92 92 60
Width: 6
Flags: W
HStem: -14 20G<1 2> -14 20G<1 2> 0 1<4 5> 1 21G<3 4> 3 1<2 3> 4 21G<1 2> 6 1<0 1>
VStem: 0 1<6 7> 1 1<4 6> 2 1<3 4> 3 1<1 3> 4 1<0 1>
LayerCount: 2
Fore
SplineSet
0 7 m 1x03
 1 7 l 1x03
 1 6 l 1x81
 0 6 l 1
 0 7 l 1x03
1 6 m 1x81
 2 6 l 1x8080
 2 5 l 1
 2 4 l 1x0880
 1 4 l 1
 1 5 l 1x0480
 1 6 l 1x81
2 4 m 1x0880
 3 4 l 1
 3 3 l 1
 2 3 l 1x0840
 2 4 l 1x0880
3 3 m 1
 4 3 l 1
 4 2 l 1
 4 1 l 1x2820
 3 1 l 1
 3 2 l 1x1020
 3 3 l 1
4 1 m 1
 5 1 l 1
 5 0 l 1
 4 0 l 1x2010
 4 1 l 1
EndSplineSet
EndChar

StartChar: bracketright
Encoding: 93 93 61
Width: 6
Flags: W
HStem: 0 1<1 3> 6 1<1 3>
VStem: 1 3<0 1 6 7>
LayerCount: 2
Fore
SplineSet
1 7 m 1
 2 7 l 1
 3 7 l 1
 4 7 l 1
 4 6 l 1
 4 5 l 1
 4 4 l 1
 4 3 l 1
 4 2 l 1
 4 1 l 1
 4 0 l 1
 3 0 l 1
 2 0 l 1
 1 0 l 1
 1 1 l 1
 2 1 l 1
 3 1 l 1
 3 2 l 1
 3 3 l 1
 3 4 l 1
 3 5 l 1
 3 6 l 1
 2 6 l 1
 1 6 l 1
 1 7 l 1
EndSplineSet
EndChar

StartChar: asciicircum
Encoding: 94 94 62
Width: 6
Flags: W
HStem: 4 1<0 1 4 5> 5 1<1 2 3 4>
VStem: 0 1<4 5> 1 1<5 6> 2 1<6 7> 3 1<5 6> 4 1<4 5>
LayerCount: 2
Fore
SplineSet
2 7 m 1x48
 3 7 l 1
 3 6 l 1x48
 2 6 l 1x50
 2 7 l 1x48
3 6 m 1
 4 6 l 1x44
 4 5 l 1x84
 3 5 l 1x44
 3 6 l 1
4 5 m 1x84
 5 5 l 1
 5 4 l 1
 4 4 l 1x82
 4 5 l 1x84
2 6 m 1x50
 2 5 l 1x50
 1 5 l 1xa0
 1 6 l 1
 2 6 l 1x50
1 5 m 1xa0
 1 4 l 1
 0 4 l 1
 0 5 l 1
 1 5 l 1xa0
EndSplineSet
EndChar

StartChar: underscore
Encoding: 95 95 63
Width: 6
Flags: W
HStem: 0 1<0 5>
LayerCount: 2
Fore
SplineSet
0 1 m 1
 1 1 l 1
 2 1 l 1
 3 1 l 1
 4 1 l 5
 5 1 l 5
 5 0 l 5
 4 0 l 5
 3 0 l 1
 2 0 l 1
 1 0 l 1
 0 0 l 1
 0 1 l 1
EndSplineSet
EndChar

StartChar: grave
Encoding: 96 96 64
Width: 6
Flags: W
HStem: 5 1<3 4> 6 1<2 3>
VStem: 2 1<6 7> 3 1<5 6>
LayerCount: 2
Fore
SplineSet
2 7 m 1x60
 3 7 l 1x60
 3 6 l 1xa0
 2 6 l 1
 2 7 l 1x60
3 6 m 1xa0
 4 6 l 1
 4 5 l 1
 3 5 l 1x90
 3 6 l 1xa0
EndSplineSet
EndChar

StartChar: a
Encoding: 97 97 65
Width: 6
Flags: W
HStem: -16 20G<4 5> 0 1<1 4> 1 1<0 1> 2 1<1 4> 4 1<1 4>
VStem: 0 1<1 2> 4 1<1 2 3 4>
LayerCount: 2
Fore
SplineSet
1 5 m 1x0e
 2 5 l 1
 3 5 l 1
 4 5 l 1x0e
 4 4 l 1x86
 3 4 l 5
 2 4 l 1
 1 4 l 1
 1 5 l 1x0e
4 4 m 1x86
 5 4 l 1x86
 5 3 l 1
 5 2 l 1x16
 5 1 l 1x26
 5 0 l 1
 4 0 l 1
 3 0 l 1
 2 0 l 1
 1 0 l 1
 1 1 l 1
 2 1 l 1
 3 1 l 1
 4 1 l 1
 4 2 l 1
 3 2 l 1
 2 2 l 1x56
 1 2 l 1x26
 1 3 l 1
 2 3 l 1
 3 3 l 1
 4 3 l 1x16
 4 4 l 1x86
1 1 m 1x46
 0 1 l 1
 0 2 l 1
 1 2 l 1x26
 1 1 l 1x46
EndSplineSet
EndChar

StartChar: b
Encoding: 98 98 66
Width: 6
Flags: W
HStem: -16 20G<4 5> -13 20G<0 1> 0 1<1 4> 1 21G<4 5> 4 1<1 4>
VStem: 0 1<1 4 5 7>
LayerCount: 2
Fore
SplineSet
0 7 m 1x44
 1 7 l 1x44
 1 6 l 1
 1 5 l 1
 2 5 l 1
 3 5 l 1
 4 5 l 1x0c
 4 4 l 1x84
 3 4 l 1
 2 4 l 1
 1 4 l 1
 1 3 l 1
 1 2 l 1
 1 1 l 1
 2 1 l 1
 3 1 l 1
 4 1 l 1
 4 0 l 1
 3 0 l 1
 2 0 l 1
 1 0 l 1
 0 0 l 1x2c
 0 1 l 1x14
 0 2 l 1
 0 3 l 1
 0 4 l 1
 0 5 l 1x0c
 0 6 l 1
 0 7 l 1x44
4 4 m 1x84
 5 4 l 1x84
 5 3 l 1
 5 2 l 1
 5 1 l 1x14
 4 1 l 1x24
 4 2 l 1
 4 3 l 1
 4 4 l 1x84
EndSplineSet
EndChar

StartChar: c
Encoding: 99 99 67
Width: 6
Flags: W
HStem: 0 1<1 4> 1 1<4 5> 3 1<4 5> 4 1<1 4>
VStem: 0 1<1 4> 1 3<0 1 4 5> 4 1<1 2 3 4>
LayerCount: 2
Fore
SplineSet
1 5 m 1x14
 2 5 l 1
 3 5 l 1
 4 5 l 1x14
 4 4 l 1x24
 3 4 l 1
 2 4 l 1
 1 4 l 1x18
 1 5 l 1x14
4 4 m 1x24
 5 4 l 1
 5 3 l 1
 4 3 l 1x22
 4 4 l 1x24
1 4 m 1x18
 1 3 l 1
 1 2 l 1x68
 1 1 l 1x88
 0 1 l 1
 0 2 l 1
 0 3 l 1x68
 0 4 l 1
 1 4 l 1x18
1 1 m 1x88
 2 1 l 1
 3 1 l 1
 4 1 l 1
 4 0 l 1
 3 0 l 1
 2 0 l 1
 1 0 l 1x84
 1 1 l 1x88
4 1 m 1
 4 2 l 1
 5 2 l 1
 5 1 l 1x42
 4 1 l 1
EndSplineSet
EndChar

StartChar: d
Encoding: 100 100 68
Width: 6
Flags: W
HStem: -16 20G<0 1> -13 20G<4 5> 0 1<1 4> 1 21G<0 1 4 5> 4 1<1 4>
VStem: 0 1<1 4> 4 1<1 4 5 7>
LayerCount: 2
Fore
SplineSet
4 7 m 1x46
 5 7 l 1x46
 5 6 l 1
 5 5 l 1
 5 4 l 1x0e
 5 3 l 1
 5 2 l 1
 5 1 l 1x16
 4 1 l 1
 4 2 l 1
 4 3 l 1
 4 4 l 1
 3 4 l 1
 2 4 l 1x2e
 1 4 l 1x86
 1 5 l 1
 2 5 l 1
 3 5 l 1
 4 5 l 1x0e
 4 6 l 1
 4 7 l 1x46
4 1 m 1x26
 4 0 l 1
 3 0 l 1
 2 0 l 1
 1 0 l 1
 1 1 l 1
 2 1 l 1
 3 1 l 1
 4 1 l 1x26
1 1 m 1
 0 1 l 1x16
 0 2 l 1
 0 3 l 1
 0 4 l 1
 1 4 l 1x86
 1 3 l 1
 1 2 l 1
 1 1 l 1
EndSplineSet
EndChar

StartChar: e
Encoding: 101 101 69
Width: 6
Flags: W
HStem: 0 1<1 5> 2 1<1 4> 4 1<1 4>
VStem: 0 1<1 2 3 4>
CounterMasks: 1 e0
LayerCount: 2
Fore
SplineSet
0 5 m 1
 1 5 l 1
 2 5 l 1
 3 5 l 1
 4 5 l 1
 5 5 l 1
 5 4 l 1
 5 3 l 1
 5 2 l 1
 4 2 l 1
 3 2 l 1
 2 2 l 1
 1 2 l 1
 1 1 l 1
 2 1 l 1
 3 1 l 1
 4 1 l 1
 5 1 l 1
 5 0 l 1
 4 0 l 1
 3 0 l 1
 2 0 l 1
 1 0 l 1
 0 0 l 1
 0 1 l 1
 0 2 l 1
 0 3 l 1
 0 4 l 1
 0 5 l 1
1 4 m 1
 1 3 l 1
 2 3 l 1
 3 3 l 1
 4 3 l 1
 4 4 l 1
 3 4 l 1
 2 4 l 1
 1 4 l 1
EndSplineSet
EndChar

StartChar: f
Encoding: 102 102 70
Width: 6
Flags: W
HStem: -14 20G<2 3> -14 20G<2 3> 0 21G<2 3> 4 1<0 2 3 5>
VStem: 2 1<0 4 5 6>
LayerCount: 2
Fore
SplineSet
3 7 m 1x88
 4 7 l 1
 5 7 l 1
 5 6 l 1
 4 6 l 1x48
 3 6 l 1
 3 7 l 1x88
3 6 m 1x88
 3 5 l 1
 4 5 l 1
 5 5 l 1
 5 4 l 1
 4 4 l 1
 3 4 l 1x18
 3 3 l 1
 3 2 l 1
 3 1 l 1
 3 0 l 1
 2 0 l 1x28
 2 1 l 1
 2 2 l 1
 2 3 l 1
 2 4 l 1
 1 4 l 1
 0 4 l 1
 0 5 l 1
 1 5 l 1
 2 5 l 1x18
 2 6 l 1
 3 6 l 1x88
EndSplineSet
EndChar

StartChar: g
Encoding: 103 103 71
Width: 6
Flags: W
HStem: -16 20G<0 1 4 5> -2 1<1 4> -1 21G<4 5> 0 1<1 4> 1 19G<0 1 4 5> 4 1<1 4>
VStem: 0 1<1 4> 1 3<-2 -1 4 5> 4 1<-1 0 1 4>
LayerCount: 2
Fore
SplineSet
1 5 m 1x05
 2 5 l 1
 3 5 l 1
 4 5 l 1x05
 4 4 l 1x81
 3 4 l 1
 2 4 l 1x05
 1 4 l 1x82
 1 5 l 1x05
4 4 m 1x81
 5 4 l 1x8080
 5 3 l 1
 5 2 l 1
 5 1 l 1x0880
 5 0 l 1x1080
 5 -1 l 1x2080
 4 -1 l 1x41
 4 0 l 1x5080
 3 0 l 1
 2 0 l 1
 1 0 l 1x51
 1 1 l 1
 2 1 l 1
 3 1 l 1
 4 1 l 1
 4 2 l 1
 4 3 l 1x5280
 4 4 l 1x81
4 -1 m 1x41
 4 -2 l 1
 3 -2 l 1
 2 -2 l 1
 1 -2 l 1
 1 -1 l 1
 2 -1 l 1
 3 -1 l 1
 4 -1 l 1x41
1 1 m 1x12
 0 1 l 1x0a
 0 2 l 1
 0 3 l 1
 0 4 l 1
 1 4 l 1x82
 1 3 l 1
 1 2 l 1
 1 1 l 1x12
EndSplineSet
EndChar

StartChar: h
Encoding: 104 104 72
Width: 6
Flags: W
HStem: -13 20G<0 1> 0 21G<0 1 4 5> 3 1<1 2> 4 1<2 4>
VStem: 0 1<0 3 4 7>
LayerCount: 2
Fore
SplineSet
0 7 m 1x88
 1 7 l 1x88
 1 6 l 1
 1 5 l 1x18
 1 4 l 1
 2 4 l 1
 2 3 l 1
 1 3 l 1x28
 1 2 l 1
 1 1 l 1
 1 0 l 1
 0 0 l 1x48
 0 1 l 1
 0 2 l 1
 0 3 l 1x28
 0 4 l 1
 0 5 l 1x18
 0 6 l 1
 0 7 l 1x88
2 4 m 1x28
 2 5 l 1
 3 5 l 1
 4 5 l 1
 4 4 l 1
 3 4 l 1x18
 2 4 l 1x28
4 4 m 1
 5 4 l 1x18
 5 3 l 1x28
 5 2 l 1
 5 1 l 1
 5 0 l 1
 4 0 l 1x48
 4 1 l 1
 4 2 l 1
 4 3 l 1x28
 4 4 l 1
EndSplineSet
EndChar

StartChar: i
Encoding: 105 105 73
Width: 6
Flags: W
HStem: 0 1<0 2 3 5> 6 1<2 3>
VStem: 2 1<1 4 6 7>
LayerCount: 2
Fore
SplineSet
2 7 m 1
 3 7 l 1
 3 6 l 1
 2 6 l 1
 2 7 l 1
1 5 m 1
 2 5 l 1
 3 5 l 1
 3 4 l 1
 3 3 l 1
 3 2 l 1
 3 1 l 1
 4 1 l 1
 5 1 l 1
 5 0 l 1
 4 0 l 1
 3 0 l 1
 2 0 l 1
 1 0 l 1
 0 0 l 1
 0 1 l 1
 1 1 l 1
 2 1 l 1
 2 2 l 1
 2 3 l 1
 2 4 l 1
 1 4 l 1
 1 5 l 1
EndSplineSet
EndChar

StartChar: j
Encoding: 106 106 74
Width: 6
Flags: W
HStem: -2 1<1 4> -1 1<0 1> 4 1<4 5>
VStem: 0 1<-1 0> 4 1<-1 3 4 5>
LayerCount: 2
Fore
SplineSet
4 5 m 1x38
 5 5 l 1
 5 4 l 1
 4 4 l 1
 4 5 l 1x38
4 3 m 1
 5 3 l 1
 5 2 l 1
 5 1 l 1
 5 0 l 1
 5 -1 l 1x78
 4 -1 l 1xb8
 4 0 l 1x78
 4 1 l 1
 4 2 l 1
 4 3 l 1
4 -1 m 1xb8
 4 -2 l 1
 3 -2 l 1
 2 -2 l 1
 1 -2 l 1
 1 -1 l 1
 2 -1 l 1
 3 -1 l 1
 4 -1 l 1xb8
1 -1 m 1
 0 -1 l 1
 0 0 l 1
 1 0 l 1x78
 1 -1 l 1
EndSplineSet
EndChar

StartChar: k
Encoding: 107 107 75
Width: 6
Flags: W
HStem: -13 20G<0 1> 0 1<4 5> 1 1<3 4> 2 1<1 3> 3 1<3 4> 4 1<4 5>
VStem: 0 1<0 2 3 7> 3 1<1 2 3 4> 4 1<0 1 4 5>
LayerCount: 2
Fore
SplineSet
0 7 m 1x83
 1 7 l 1x83
 1 6 l 1
 1 5 l 1
 1 4 l 1
 1 3 l 1
 2 3 l 1
 3 3 l 1x17
 3 2 l 1x23
 2 2 l 1
 1 2 l 1x13
 1 1 l 1x23
 1 0 l 1
 0 0 l 1x43
 0 1 l 1x23
 0 2 l 1x13
 0 3 l 1x0b
 0 4 l 1
 0 5 l 1x07
 0 6 l 1
 0 7 l 1x83
3 3 m 1x13
 3 4 l 1
 4 4 l 1
 4 3 l 1x0b
 3 3 l 1x13
4 4 m 1
 4 5 l 1
 5 5 l 1
 5 4 l 1x0680
 4 4 l 1
3 2 m 1x23
 4 2 l 1x23
 4 1 l 1x43
 3 1 l 1
 3 2 l 1x23
4 1 m 1x43
 5 1 l 1
 5 0 l 1
 4 0 l 1x4280
 4 1 l 1x43
EndSplineSet
EndChar

StartChar: l
Encoding: 108 108 76
Width: 6
Flags: W
HStem: 0 1<2 5> 1 21G<1 2> 6 1<0 1>
VStem: 1 1<1 6>
LayerCount: 2
Fore
SplineSet
0 7 m 1x30
 1 7 l 1
 2 7 l 1
 2 6 l 1
 2 5 l 1
 2 4 l 1
 2 3 l 1
 2 2 l 1
 2 1 l 1xb0
 1 1 l 1x50
 1 2 l 1
 1 3 l 1
 1 4 l 1
 1 5 l 1
 1 6 l 1
 0 6 l 1
 0 7 l 1x30
2 1 m 1
 3 1 l 1
 4 1 l 1
 5 1 l 1
 5 0 l 1
 4 0 l 1
 3 0 l 1
 2 0 l 1
 2 1 l 1
EndSplineSet
EndChar

StartChar: m
Encoding: 109 109 77
Width: 6
Flags: W
HStem: -16 20G<2 3 4 5> 0 21G<0 1 2 3 4 5> 4 1<1 2 3 4>
VStem: 0 1<0 4> 2 1<0 4> 3 1<4 5> 4 1<0 4>
LayerCount: 2
Fore
SplineSet
0 5 m 1x38
 1 5 l 1
 2 5 l 1x38
 2 4 l 1x98
 1 4 l 1x38
 1 3 l 1
 1 2 l 1
 1 1 l 1
 1 0 l 1
 0 0 l 1x58
 0 1 l 1
 0 2 l 1
 0 3 l 1
 0 4 l 1
 0 5 l 1x38
2 4 m 1x98
 3 4 l 1x98
 3 3 l 1
 3 2 l 1
 3 1 l 1
 3 0 l 1
 2 0 l 1x58
 2 1 l 1
 2 2 l 1
 2 3 l 1
 2 4 l 1x98
3 4 m 1
 3 5 l 1
 4 5 l 1x34
 4 4 l 1x94
 3 4 l 1
4 4 m 1x94
 5 4 l 1x92
 5 3 l 1
 5 2 l 1
 5 1 l 1
 5 0 l 1
 4 0 l 1
 4 1 l 1
 4 2 l 1
 4 3 l 1x52
 4 4 l 1x94
EndSplineSet
EndChar

StartChar: n
Encoding: 110 110 78
Width: 6
Flags: W
HStem: -16 20G<4 5> 0 21G<0 1 4 5> 4 1<1 4>
VStem: 0 1<0 4> 4 1<0 4>
LayerCount: 2
Fore
SplineSet
0 5 m 1x38
 1 5 l 1
 2 5 l 1
 3 5 l 1
 4 5 l 1x38
 4 4 l 1x98
 3 4 l 1
 2 4 l 1
 1 4 l 1x38
 1 3 l 1
 1 2 l 1
 1 1 l 1
 1 0 l 1
 0 0 l 1x58
 0 1 l 1
 0 2 l 1
 0 3 l 1
 0 4 l 1
 0 5 l 1x38
4 4 m 1x98
 5 4 l 1x98
 5 3 l 1
 5 2 l 1
 5 1 l 1
 5 0 l 1
 4 0 l 1x58
 4 1 l 1
 4 2 l 1
 4 3 l 1
 4 4 l 1x98
EndSplineSet
EndChar

StartChar: o
Encoding: 111 111 79
Width: 6
Flags: W
HStem: 0 1<1 4> 1 3<0 1 4 5>
VStem: 0 1<1 4> 1 3<0 1 4 5>
LayerCount: 2
Fore
SplineSet
1 5 m 1x50
 2 5 l 1
 3 5 l 1
 4 5 l 1
 4 4 l 1x50
 3 4 l 1
 2 4 l 1
 1 4 l 1x60
 1 5 l 1x50
4 4 m 1
 5 4 l 1
 5 3 l 1
 5 2 l 1
 5 1 l 1x50
 4 1 l 1x90
 4 2 l 1
 4 3 l 1
 4 4 l 1
4 1 m 1x90
 4 0 l 1
 3 0 l 1
 2 0 l 1
 1 0 l 1x90
 1 1 l 1xa0
 2 1 l 1
 3 1 l 1
 4 1 l 1x90
1 1 m 1xa0
 0 1 l 1
 0 2 l 1
 0 3 l 1
 0 4 l 1
 1 4 l 1x60
 1 3 l 1
 1 2 l 1
 1 1 l 1xa0
EndSplineSet
EndChar

StartChar: p
Encoding: 112 112 80
Width: 6
Flags: W
HStem: -16 20G<4 5> -2 21G<0 1> 0 1<1 4> 1 21G<4 5> 4 1<1 4>
VStem: 0 1<-2 0 1 4>
LayerCount: 2
Fore
SplineSet
0 5 m 1x0c
 1 5 l 1
 2 5 l 1
 3 5 l 1
 4 5 l 1x0c
 4 4 l 1x84
 3 4 l 1
 2 4 l 1
 1 4 l 1
 1 3 l 1
 1 2 l 1
 1 1 l 1
 2 1 l 1
 3 1 l 1
 4 1 l 1
 4 0 l 1
 3 0 l 1
 2 0 l 1
 1 0 l 1x2c
 1 -1 l 1
 1 -2 l 1
 0 -2 l 1x44
 0 -1 l 1
 0 0 l 1x24
 0 1 l 1x14
 0 2 l 1
 0 3 l 1
 0 4 l 1
 0 5 l 1x0c
4 4 m 1x84
 5 4 l 1x84
 5 3 l 1
 5 2 l 1
 5 1 l 1x14
 4 1 l 1x24
 4 2 l 1
 4 3 l 1
 4 4 l 1x84
EndSplineSet
EndChar

StartChar: q
Encoding: 113 113 81
Width: 6
Flags: W
HStem: -16 20G<0 1> -2 21G<4 5> 0 1<1 4> 1 21G<0 1> 4 1<1 4>
VStem: 0 1<1 4> 4 1<-2 0 1 4>
LayerCount: 2
Fore
SplineSet
1 5 m 1x0e
 2 5 l 1
 3 5 l 1
 4 5 l 1
 5 5 l 1
 5 4 l 1x0e
 5 3 l 1
 5 2 l 1
 5 1 l 1x16
 5 0 l 1x26
 5 -1 l 1
 5 -2 l 1
 4 -2 l 1x46
 4 -1 l 1
 4 0 l 1
 3 0 l 1
 2 0 l 1
 1 0 l 1
 1 1 l 1
 2 1 l 1
 3 1 l 1
 4 1 l 1
 4 2 l 1
 4 3 l 1
 4 4 l 1
 3 4 l 1
 2 4 l 1x2e
 1 4 l 1x86
 1 5 l 1x0e
1 1 m 1x26
 0 1 l 1x16
 0 2 l 1
 0 3 l 1
 0 4 l 1
 1 4 l 1x86
 1 3 l 1
 1 2 l 1
 1 1 l 1x26
EndSplineSet
EndChar

StartChar: r
Encoding: 114 114 82
Width: 6
Flags: W
HStem: 0 21G<0 1> 3 1<1 2 4 5>
VStem: 0 1<0 3 4 5>
LayerCount: 2
Fore
SplineSet
0 5 m 1x60
 1 5 l 1
 1 4 l 1
 2 4 l 1
 2 3 l 1
 1 3 l 1x60
 1 2 l 1
 1 1 l 1
 1 0 l 1
 0 0 l 1xa0
 0 1 l 1
 0 2 l 1
 0 3 l 1
 0 4 l 1
 0 5 l 1x60
2 4 m 1
 2 5 l 1
 3 5 l 1
 4 5 l 1
 4 4 l 1
 3 4 l 1
 2 4 l 1
4 4 m 1
 5 4 l 1
 5 3 l 1
 4 3 l 1
 4 4 l 1
EndSplineSet
EndChar

StartChar: s
Encoding: 115 115 83
Width: 6
Flags: W
HStem: 0 1<0 4> 1 1<4 5> 2 1<1 4> 3 1<0 1> 4 1<1 5>
VStem: 0 1<3 4> 4 1<1 2>
LayerCount: 2
Fore
SplineSet
1 5 m 1x0e
 2 5 l 1
 3 5 l 1
 4 5 l 1
 5 5 l 1
 5 4 l 1
 4 4 l 1
 3 4 l 1
 2 4 l 1x0e
 1 4 l 1x16
 1 5 l 1x0e
1 4 m 1x16
 1 3 l 1x26
 0 3 l 1
 0 4 l 1
 1 4 l 1x16
1 3 m 1
 2 3 l 1
 3 3 l 1
 4 3 l 1x26
 4 2 l 1x46
 3 2 l 1
 2 2 l 1
 1 2 l 1
 1 3 l 1
4 2 m 1x46
 5 2 l 1
 5 1 l 1x46
 4 1 l 1x86
 4 2 l 1x46
4 1 m 1x86
 4 0 l 1
 3 0 l 1
 2 0 l 1
 1 0 l 1
 0 0 l 1
 0 1 l 1
 1 1 l 1
 2 1 l 1
 3 1 l 1
 4 1 l 1x86
EndSplineSet
EndChar

StartChar: t
Encoding: 116 116 84
Width: 6
Flags: W
HStem: -13 20G<2 3> 0 1<3 5> 1 21G<2 3> 4 1<0 2 3 5>
VStem: 2 1<1 4 5 7>
LayerCount: 2
Fore
SplineSet
2 7 m 1x88
 3 7 l 1x88
 3 6 l 1
 3 5 l 1
 4 5 l 1
 5 5 l 1
 5 4 l 1
 4 4 l 1
 3 4 l 1
 3 3 l 1
 3 2 l 1
 3 1 l 1x58
 2 1 l 1x28
 2 2 l 1
 2 3 l 1
 2 4 l 1
 1 4 l 1
 0 4 l 1
 0 5 l 1
 1 5 l 1
 2 5 l 1x18
 2 6 l 1
 2 7 l 1x88
3 1 m 1x48
 4 1 l 1
 5 1 l 1
 5 0 l 1
 4 0 l 1
 3 0 l 1
 3 1 l 1x48
EndSplineSet
EndChar

StartChar: u
Encoding: 117 117 85
Width: 6
Flags: W
HStem: -15 20G<0 1 4 5> 0 1<1 4> 1 21G<0 1>
VStem: 0 1<1 5> 4 1<1 5>
LayerCount: 2
Fore
SplineSet
0 5 m 1x98
 1 5 l 1x98
 1 4 l 1
 1 3 l 1
 1 2 l 1
 1 1 l 1x58
 0 1 l 1x38
 0 2 l 1
 0 3 l 1
 0 4 l 1
 0 5 l 1x98
1 1 m 1x58
 2 1 l 1
 3 1 l 1
 4 1 l 1x58
 4 2 l 1
 4 3 l 1
 4 4 l 1
 4 5 l 1
 5 5 l 1x98
 5 4 l 1
 5 3 l 1
 5 2 l 1
 5 1 l 1x38
 5 0 l 1
 4 0 l 1
 3 0 l 1
 2 0 l 1
 1 0 l 1
 1 1 l 1x58
EndSplineSet
EndChar

StartChar: v
Encoding: 118 118 86
Width: 6
Flags: W
HStem: 0 1<2 3> 1 1<1 2 3 4> 2 3<0 1 4 5>
VStem: 0 1<2 5> 1 1<1 2> 2 1<0 1> 3 1<1 2> 4 1<2 5>
LayerCount: 2
Fore
SplineSet
0 5 m 1x30
 1 5 l 1x30
 1 4 l 1
 1 3 l 1
 1 2 l 1x50
 0 2 l 1
 0 3 l 1
 0 4 l 1
 0 5 l 1x30
1 2 m 1x50
 2 2 l 1x48
 2 1 l 1x88
 1 1 l 1x48
 1 2 l 1x50
2 1 m 1x88
 3 1 l 1
 3 0 l 1
 2 0 l 1x84
 2 1 l 1x88
3 1 m 1
 3 2 l 1
 4 2 l 1
 4 1 l 1x42
 3 1 l 1
4 2 m 1
 4 3 l 1
 4 4 l 1
 4 5 l 1
 5 5 l 1
 5 4 l 1
 5 3 l 1
 5 2 l 1x21
 4 2 l 1
EndSplineSet
EndChar

StartChar: w
Encoding: 119 119 87
Width: 6
Flags: W
HStem: -15 20G<0 1 4 5> 0 1<1 2 3 4> 1 21G<0 1>
VStem: 0 1<1 5> 2 1<1 3> 4 1<1 5>
CounterMasks: 1 1c
LayerCount: 2
Fore
SplineSet
0 5 m 1x9c
 1 5 l 1x9c
 1 4 l 1
 1 3 l 1
 1 2 l 1
 1 1 l 1x5c
 0 1 l 1x3c
 0 2 l 1
 0 3 l 1
 0 4 l 1
 0 5 l 1x9c
1 1 m 1x5c
 2 1 l 1
 2 2 l 1
 2 3 l 1
 3 3 l 1
 3 2 l 1
 3 1 l 1
 4 1 l 1x5c
 4 2 l 1
 4 3 l 1
 4 4 l 1
 4 5 l 1
 5 5 l 1x9c
 5 4 l 1
 5 3 l 1
 5 2 l 1
 5 1 l 1x3c
 5 0 l 1
 4 0 l 1
 3 0 l 1
 2 0 l 1
 1 0 l 1
 1 1 l 1x5c
EndSplineSet
EndChar

StartChar: x
Encoding: 120 120 88
Width: 6
Flags: W
HStem: 0 1<0 1 4 5> 1 1<1 2 3 4> 3 1<1 2 3 4> 4 1<0 1 4 5>
VStem: 0 1<0 1 4 5> 1 1<1 2 3 4> 3 1<1 2 3 4> 4 1<0 1 4 5>
LayerCount: 2
Fore
SplineSet
0 5 m 1x18
 1 5 l 1x18
 1 4 l 1x28
 0 4 l 1
 0 5 l 1x18
1 4 m 1x28
 2 4 l 1
 2 3 l 1
 1 3 l 1x24
 1 4 l 1x28
2 3 m 1
 3 3 l 1
 3 2 l 1
 2 2 l 1x66
 2 3 l 1
3 3 m 1
 3 4 l 1
 4 4 l 1
 4 3 l 1
 3 3 l 1
4 4 m 1
 4 5 l 1
 5 5 l 1
 5 4 l 1x11
 4 4 l 1
3 2 m 1x42
 4 2 l 1x42
 4 1 l 1x82
 3 1 l 1
 3 2 l 1x42
4 1 m 1x82
 5 1 l 1
 5 0 l 1
 4 0 l 1x81
 4 1 l 1x82
2 2 m 1x44
 2 1 l 1x44
 1 1 l 1x88
 1 2 l 1
 2 2 l 1x44
1 1 m 1x88
 1 0 l 1
 0 0 l 1
 0 1 l 1
 1 1 l 1x88
EndSplineSet
EndChar

StartChar: y
Encoding: 121 121 89
Width: 6
Flags: W
HStem: -15 20G<0 1 4 5> -2 1<0 4> -1 21G<4 5> 0 1<1 4> 1 21G<0 1 4 5>
VStem: 0 1<1 5> 4 1<-1 0 1 5>
LayerCount: 2
Fore
SplineSet
0 5 m 1x86
 1 5 l 1x86
 1 4 l 1
 1 3 l 1
 1 2 l 1
 1 1 l 1x16
 0 1 l 1x0e
 0 2 l 1
 0 3 l 1
 0 4 l 1
 0 5 l 1x86
1 1 m 1x56
 2 1 l 1
 3 1 l 1
 4 1 l 1x56
 4 2 l 1
 4 3 l 1
 4 4 l 1
 4 5 l 1
 5 5 l 1x86
 5 4 l 1
 5 3 l 1
 5 2 l 1
 5 1 l 1x0e
 5 0 l 1x16
 5 -1 l 1x26
 4 -1 l 1
 4 0 l 1
 3 0 l 1
 2 0 l 1
 1 0 l 1
 1 1 l 1x56
4 -1 m 1
 4 -2 l 1
 3 -2 l 1
 2 -2 l 1
 1 -2 l 1
 0 -2 l 1
 0 -1 l 1
 1 -1 l 1
 2 -1 l 1
 3 -1 l 1
 4 -1 l 1
EndSplineSet
EndChar

StartChar: z
Encoding: 122 122 90
Width: 6
Flags: W
HStem: 0 1<0 1 2 5> 4 1<0 3 4 5>
VStem: 2 1<2 3>
LayerCount: 2
Fore
SplineSet
0 5 m 1
 1 5 l 1
 2 5 l 1
 3 5 l 1
 4 5 l 1
 5 5 l 1
 5 4 l 1
 4 4 l 1
 4 3 l 1
 3 3 l 1
 3 4 l 1
 2 4 l 1
 1 4 l 1
 0 4 l 1
 0 5 l 1
3 3 m 1
 3 2 l 1
 2 2 l 1
 2 3 l 1
 3 3 l 1
2 2 m 1
 2 1 l 1
 3 1 l 1
 4 1 l 1
 5 1 l 1
 5 0 l 1
 4 0 l 1
 3 0 l 1
 2 0 l 1
 1 0 l 1
 0 0 l 1
 0 1 l 1
 1 1 l 1
 1 2 l 1
 2 2 l 1
EndSplineSet
EndChar

StartChar: braceleft
Encoding: 123 123 91
Width: 6
Flags: W
HStem: -14 20G<1 2> -14 20G<1 2> 0 1<2 4> 1 21G<1 2> 3 1<0 1> 4 21G<1 2> 6 1<2 4>
VStem: 0 1<3 4> 1 1<1 3 4 6> 2 2<0 1 6 7>
LayerCount: 2
Fore
SplineSet
2 7 m 1x0240
 3 7 l 1
 4 7 l 1
 4 6 l 1
 3 6 l 1x0240
 2 6 l 1x8080
 2 7 l 1x0240
2 6 m 1x8080
 2 5 l 1
 2 4 l 1x0480
 1 4 l 1x09
 1 5 l 1
 1 6 l 1
 2 6 l 1x8080
1 4 m 1x09
 1 3 l 1
 0 3 l 1
 0 4 l 1
 1 4 l 1x09
1 3 m 1
 2 3 l 1
 2 2 l 1
 2 1 l 1x2880
 1 1 l 1
 1 2 l 1x1080
 1 3 l 1
2 1 m 1
 3 1 l 1
 4 1 l 1
 4 0 l 1
 3 0 l 1
 2 0 l 1x2040
 2 1 l 1
EndSplineSet
EndChar

StartChar: bar
Encoding: 124 124 92
Width: 6
Flags: W
HStem: -13 20G<2 3> 0 21G<2 3>
VStem: 2 1<0 7>
LayerCount: 2
Fore
SplineSet
2 7 m 1xa0
 3 7 l 1xa0
 3 6 l 1
 3 5 l 1
 3 4 l 1
 3 3 l 1
 3 2 l 1
 3 1 l 1
 3 0 l 1
 2 0 l 1x60
 2 1 l 1
 2 2 l 1
 2 3 l 1
 2 4 l 1
 2 5 l 1
 2 6 l 1
 2 7 l 1xa0
EndSplineSet
EndChar

StartChar: braceright
Encoding: 125 125 93
Width: 6
Flags: W
HStem: -14 20G<2 3> -14 20G<2 3> 0 1<0 2> 1 21G<2 3> 3 1<3 4> 4 21G<2 3> 6 1<0 2>
VStem: 0 2<0 1 6 7> 2 1<1 3 4 6>
LayerCount: 2
Fore
SplineSet
0 7 m 1x03
 1 7 l 1
 2 7 l 1x03
 2 6 l 1x81
 1 6 l 1
 0 6 l 1
 0 7 l 1x03
2 6 m 1x81
 3 6 l 1x8080
 3 5 l 1
 3 4 l 1x0880
 2 4 l 1
 2 5 l 1x0480
 2 6 l 1x81
3 4 m 1x0880
 4 4 l 1
 4 3 l 1
 3 3 l 1
 3 4 l 1x0880
3 3 m 1
 3 2 l 1
 3 1 l 1x1080
 2 1 l 1x21
 2 2 l 1
 2 3 l 1
 3 3 l 1
2 1 m 1x21
 2 0 l 1
 1 0 l 1
 0 0 l 1
 0 1 l 1
 1 1 l 1
 2 1 l 1x21
EndSplineSet
EndChar

StartChar: asciitilde
Encoding: 126 126 94
Width: 6
Flags: W
HStem: 4 1<3 4> 5 1<0 1 2 3 4 5>
VStem: 0 1<5 6> 1 1<6 7> 2 1<5 6> 3 1<4 5> 4 1<5 6>
LayerCount: 2
Fore
SplineSet
1 7 m 1x50
 2 7 l 1
 2 6 l 1x50
 1 6 l 1x60
 1 7 l 1x50
2 6 m 1
 3 6 l 1x48
 3 5 l 1x88
 2 5 l 1x48
 2 6 l 1
3 5 m 1x88
 4 5 l 1
 4 4 l 1
 3 4 l 1x84
 3 5 l 1x88
4 5 m 1
 4 6 l 1
 5 6 l 1
 5 5 l 1x42
 4 5 l 1
1 6 m 1x60
 1 5 l 1
 0 5 l 1
 0 6 l 1
 1 6 l 1x60
EndSplineSet
EndChar

StartChar: uni00B9
Encoding: 185 185 97
Width: 6
Flags: W
HStem: -13 20G<2 3> 3 1<1 2 3 4>
VStem: 2 1<4 5 6 7>
LayerCount: 2
Fore
SplineSet
2 7 m 1xa0
 3 7 l 1xa0
 3 6 l 1
 3 5 l 1
 3 4 l 1
 4 4 l 1
 4 3 l 1
 3 3 l 1
 2 3 l 1
 1 3 l 1
 1 4 l 1
 2 4 l 1x60
 2 5 l 1
 1 5 l 1
 1 6 l 1
 2 6 l 1
 2 7 l 1xa0
EndSplineSet
EndChar

StartChar: uni00B2
Encoding: 178 178 98
Width: 6
Flags: W
HStem: 3 1<3 4> 6 1<1 2>
VStem: 1 3<3 4 6 7>
LayerCount: 2
Fore
SplineSet
1 7 m 1
 2 7 l 1
 3 7 l 1
 4 7 l 1
 4 6 l 1
 4 5 l 1
 3 5 l 1
 3 4 l 1
 4 4 l 1
 4 3 l 1
 3 3 l 1
 2 3 l 1
 1 3 l 1
 1 4 l 1
 1 5 l 1
 2 5 l 1
 2 6 l 1
 1 6 l 1
 1 7 l 1
EndSplineSet
EndChar

StartChar: uni00B3
Encoding: 179 179 117
Width: 6
Flags: W
HStem: 3 1<1 3> 6 1<1 2>
VStem: 1 3<3 4 6 7>
LayerCount: 2
Fore
SplineSet
1 7 m 1
 2 7 l 1
 3 7 l 1
 4 7 l 1
 4 6 l 1
 4 5 l 1
 4 4 l 1
 4 3 l 1
 3 3 l 1
 2 3 l 1
 1 3 l 1
 1 4 l 1
 2 4 l 1
 3 4 l 1
 3 5 l 1
 2 5 l 1
 2 6 l 1
 1 6 l 1
 1 7 l 1
EndSplineSet
EndChar

StartChar: mu
Encoding: 181 181 119
Width: 6
Flags: W
HStem: -15 20G<0 1 4 5> 0 21G<0 1> 1 1<1 4>
VStem: 0 1<0 1 2 5>
LayerCount: 2
Fore
SplineSet
0 5 m 5x90
 1 5 l 5x90
 1 4 l 5
 1 3 l 5
 1 2 l 5
 2 2 l 5
 3 2 l 5
 4 2 l 5
 4 1 l 5
 3 1 l 5
 2 1 l 5
 1 1 l 5x30
 1 0 l 5
 0 0 l 5x50
 0 1 l 5
 0 2 l 5x30
 0 3 l 5
 0 4 l 5
 0 5 l 5x90
4 2 m 5x30
 4 3 l 5
 4 4 l 5
 4 5 l 5
 5 5 l 5x90
 5 4 l 5
 5 3 l 5
 5 2 l 5
 4 2 l 5x30
EndSplineSet
EndChar

